# Blender 3.3.5
# www.blender.org
mtllib pcity_nodes_curb_road_corner.mtl
o Cube
v -0.500000 -0.300000 -0.500000
v -0.500000 -0.500000 -0.500000
v -0.500000 -0.300000 0.500000
v -0.500000 -0.500000 0.500000
v -0.020000 -0.300000 0.500000
v -0.020000 -0.500000 -0.500000
v -0.020000 -0.500000 0.500000
v -0.020000 -0.300000 -0.500000
vn -0.0000 -0.0000 1.0000
vn -1.0000 -0.0000 -0.0000
vn -0.0000 1.0000 -0.0000
vn -0.0000 -1.0000 -0.0000
vn -0.0000 -0.0000 -1.0000
vn 1.0000 -0.0000 -0.0000
vt 1.000000 0.406250
vt 1.000000 1.000000
vt 0.406250 0.406250
vt 1.000000 0.593750
vt 0.406250 0.187500
vt 0.406250 0.187500
vt 0.000000 0.406250
vt 0.000000 1.000000
vt 0.406250 0.406250
vt 0.000000 0.593750
vt 0.000000 0.187500
vt 0.000000 0.593750
vt 1.000000 1.000000
vt 0.000000 0.187500
vt 1.000000 0.406250
vt 0.000000 1.000000
vt 0.000000 0.406250
vt 0.000000 0.406250
vt 1.000000 0.593750
s 0
usemtl Material
f 7/17/1 5/11/1 3/6/1 4/9/1
f 4/10/2 3/7/2 1/1/2 2/4/2
f 1/2/3 3/8/3 5/12/3 8/19/3
f 4/10/4 2/4/4 6/13/4 7/16/4
f 2/5/5 1/3/5 8/18/5 6/14/5
f 7/17/6 6/15/6 8/19/6 5/12/6
o Cube.001
v -0.020000 -0.300000 -0.020000
v -0.020000 -0.500000 -0.020000
v 0.500000 -0.300000 -0.020000
v 0.500000 -0.500000 -0.020000
v 0.500000 -0.300000 -0.500000
v -0.020000 -0.500000 -0.500000
v 0.500000 -0.500000 -0.500000
v -0.020000 -0.300000 -0.500000
vn 1.0000 -0.0000 -0.0000
vn -0.0000 -0.0000 1.0000
vn -0.0000 1.0000 -0.0000
vn -0.0000 -1.0000 -0.0000
vn -1.0000 -0.0000 -0.0000
vn -0.0000 -0.0000 -1.0000
vt 0.500000 0.406250
vt 0.500000 1.000000
vt 0.417969 0.398438
vt 0.500000 0.593750
vt 0.417969 0.191406
vt 0.417969 0.191406
vt 0.000000 0.406250
vt 0.000000 1.000000
vt 0.417969 0.398438
vt 0.000000 0.593750
vt -0.000000 0.191406
vt 0.000000 0.593750
vt 0.500000 1.000000
vt -0.000000 0.191406
vt 0.500000 0.406250
vt -0.000000 0.398438
vt 0.000000 1.000000
vt 0.000000 0.406250
vt -0.000000 0.398438
vt 0.500000 0.593750
s 0
usemtl Material
f 15/35/7 13/30/7 11/25/7 12/28/7
f 12/29/8 11/26/8 9/20/8 10/23/8
f 9/21/9 11/27/9 13/31/9 16/39/9
f 12/29/10 10/23/10 14/32/10 15/36/10
f 10/24/11 9/22/11 16/38/11 14/33/11
f 15/37/12 14/34/12 16/39/12 13/31/12
