# Blender 4.2.2 LTS
# www.blender.org
mtllib pcity_nodes_shelf_1_left.mtl
o Shelf_Left
v 0.500000 -0.500000 0.500000
v 0.500000 0.500000 0.500000
v 0.400000 -0.400000 -0.500000
v 0.400000 0.400000 -0.500000
v 0.500000 -0.500000 -0.500000
v 0.500000 0.500000 -0.500000
v 0.400000 -0.400000 0.400000
v 0.400000 0.400000 0.400000
v -0.500000 -0.500000 -0.500000
v -0.500000 0.500000 -0.500000
v -0.500000 -0.500000 0.500000
v -0.500000 0.500000 0.500000
v -0.500000 -0.400000 -0.500000
v -0.500000 0.400000 -0.500000
v -0.500000 -0.400000 0.400000
v -0.500000 0.400000 0.400000
vn -0.0000 -1.0000 -0.0000
vn 1.0000 -0.0000 -0.0000
vn -0.0000 -0.0000 -1.0000
vn -1.0000 -0.0000 -0.0000
vn -0.0000 1.0000 -0.0000
vn -0.0000 -0.0000 1.0000
vt 0.600062 0.596175
vt 0.600062 0.603684
vt 0.590206 0.603684
vt 0.590206 0.596175
vt 0.590194 0.587819
vt 0.590194 0.596162
vt 0.579243 0.596162
vt 0.579243 0.587819
vt 0.590194 0.579475
vt 0.579243 0.579475
vt 0.611026 0.587819
vt 0.611026 0.580309
vt 0.612121 0.579475
vt 0.612121 0.587819
vt 0.602265 0.580309
vt 0.601170 0.579475
vt 0.600075 0.602850
vt 0.600075 0.596175
vt 0.609931 0.596175
vt 0.609931 0.602850
vt 0.600062 0.610359
vt 0.590206 0.610359
vt 0.609931 0.610359
vt 0.600075 0.610359
vt 0.602265 0.587819
vt 0.601170 0.587819
vt 0.590194 0.604506
vt 0.579243 0.604506
vt 0.601157 0.596162
vt 0.590206 0.596162
vt 0.590206 0.587819
vt 0.601157 0.587819
vt 0.600062 0.579475
vt 0.601157 0.579475
vt 0.600062 0.586984
vt 0.591301 0.586984
vt 0.590206 0.579475
vt 0.591301 0.579475
s 0
usemtl Wood
f 14/1/1 4/2/1 8/3/1 16/4/1
f 5/5/2 6/6/2 2/7/2 1/8/2
f 9/9/1 5/5/1 1/8/1 11/10/1
f 13/11/3 3/12/3 5/13/3 9/14/3
f 3/12/3 4/15/3 6/16/3 5/13/3
f 15/17/3 16/18/3 8/19/3 7/20/3
f 4/2/4 3/21/4 7/22/4 8/3/4
f 3/23/5 13/24/5 15/17/5 7/20/5
f 4/15/3 14/25/3 10/26/3 6/16/3
f 6/6/5 10/27/5 12/28/5 2/7/5
f 1/29/6 2/30/6 12/31/6 11/32/6
f 13/33/4 9/34/4 11/32/4 15/35/4
f 16/36/4 12/31/4 10/37/4 14/38/4
f 15/35/4 11/32/4 12/31/4 16/36/4
