# Blender 3.3.5
# www.blender.org
mtllib pcity_nodes_curb_road.mtl
o Cube
v 0.500000 -0.300000 -0.500000
v 0.500000 -0.500000 -0.500000
v -0.500000 -0.300000 -0.500000
v -0.500000 -0.500000 -0.500000
v -0.500000 -0.300000 -0.020000
v 0.500000 -0.500000 -0.020000
v -0.500000 -0.500000 -0.020000
v 0.500000 -0.300000 -0.020000
vn -1.0000 -0.0000 -0.0000
vn -0.0000 -0.0000 -1.0000
vn -0.0000 1.0000 -0.0000
vn -0.0000 -1.0000 -0.0000
vn 1.0000 -0.0000 -0.0000
vn -0.0000 -0.0000 1.0000
vt 1.000000 0.406250
vt 1.000000 1.000000
vt 0.406250 0.406250
vt 1.000000 0.593750
vt 0.406250 0.187500
vt 0.406250 0.187500
vt 0.000000 0.406250
vt 0.000000 1.000000
vt 0.406250 0.406250
vt 0.000000 0.593750
vt 0.000000 0.187500
vt 0.000000 0.593750
vt 1.000000 1.000000
vt 0.000000 0.187500
vt 1.000000 0.406250
vt 0.000000 1.000000
vt 0.000000 0.406250
vt 0.000000 0.406250
vt 1.000000 0.593750
s 0
usemtl Material
f 7/17/1 5/11/1 3/6/1 4/9/1
f 4/10/2 3/7/2 1/1/2 2/4/2
f 1/2/3 3/8/3 5/12/3 8/19/3
f 4/10/4 2/4/4 6/13/4 7/16/4
f 2/5/5 1/3/5 8/18/5 6/14/5
f 7/17/6 6/15/6 8/19/6 5/12/6
