# Blender 4.2.2 LTS
# www.blender.org
mtllib pcity_nodes_books_2.mtl
o Books_2
v -0.337789 -0.500000 0.406259
v 0.393599 -0.413462 0.365791
v -0.337789 -0.400000 0.406259
v 0.393599 -0.486538 0.365791
v 0.357694 -0.486538 -0.283127
v 0.357694 -0.413462 -0.283127
v -0.374438 -0.400000 -0.256100
v -0.374438 -0.500000 -0.256100
v 0.393599 -0.500000 0.365791
v 0.393599 -0.400000 0.365791
v 0.356950 -0.500000 -0.296569
v 0.356950 -0.400000 -0.296569
v -0.337789 -0.486538 0.406259
v -0.337789 -0.413462 0.406259
v -0.373694 -0.486538 -0.242659
v -0.373694 -0.413462 -0.242659
v -0.366161 -0.485784 -0.237157
v -0.330909 -0.485784 0.399960
v -0.366161 -0.414216 -0.237157
v -0.330909 -0.414216 0.399960
v 0.386066 -0.485784 0.360289
v 0.386066 -0.414216 0.360289
v 0.350814 -0.485784 -0.276828
v 0.350814 -0.414216 -0.276828
v -0.374145 -0.462179 -0.250811
v -0.374145 -0.437821 -0.250811
v 0.356499 -0.466667 -0.304721
v 0.356499 -0.433333 -0.304721
v -0.374889 -0.466667 -0.264252
v -0.374889 -0.433333 -0.264252
v 0.357243 -0.462179 -0.291279
v 0.357243 -0.437821 -0.291279
v -0.366612 -0.461928 -0.245310
v -0.366612 -0.438072 -0.245310
v -0.331247 -0.461928 0.393836
v -0.331247 -0.438072 0.393836
v 0.385727 -0.461928 0.354165
v 0.385727 -0.438072 0.354165
v 0.350362 -0.461928 -0.284980
v 0.350362 -0.438072 -0.284980
v -0.369212 -0.399303 0.386538
v 0.363295 -0.312765 0.386538
v -0.369212 -0.299303 0.386538
v 0.363295 -0.385841 0.386538
v 0.363295 -0.385841 -0.263373
v 0.363295 -0.312765 -0.263373
v -0.369212 -0.299303 -0.276835
v -0.369212 -0.399303 -0.276835
v 0.363295 -0.399303 0.386538
v 0.363295 -0.299303 0.386538
v 0.363295 -0.399303 -0.276835
v 0.363295 -0.299303 -0.276835
v -0.369212 -0.385841 0.386538
v -0.369212 -0.312765 0.386538
v -0.369212 -0.385841 -0.263373
v -0.369212 -0.312765 -0.263373
v -0.361994 -0.385088 -0.257464
v -0.361994 -0.385088 0.380629
v -0.361994 -0.313519 -0.257464
v -0.361994 -0.313519 0.380629
v 0.356077 -0.385088 0.380629
v 0.356077 -0.313519 0.380629
v 0.356077 -0.385088 -0.257464
v 0.356077 -0.313519 -0.257464
v -0.369212 -0.361482 -0.271538
v -0.369212 -0.337124 -0.271538
v 0.363295 -0.365970 -0.285000
v 0.363295 -0.332636 -0.285000
v -0.369212 -0.365970 -0.285000
v -0.369212 -0.332636 -0.285000
v 0.363295 -0.361482 -0.271538
v 0.363295 -0.337124 -0.271538
v -0.361994 -0.361231 -0.265628
v -0.361994 -0.337375 -0.265628
v -0.361994 -0.361231 0.374495
v -0.361994 -0.337375 0.374495
v 0.356077 -0.361231 0.374495
v 0.356077 -0.337375 0.374495
v 0.356077 -0.361231 -0.265628
v 0.356077 -0.337375 -0.265628
v -0.390769 -0.299193 0.361390
v 0.340110 -0.212655 0.410194
v -0.390769 -0.199193 0.361390
v 0.340110 -0.285731 0.410194
v 0.383412 -0.285731 -0.238273
v 0.383412 -0.212655 -0.238273
v -0.346571 -0.199193 -0.300509
v -0.346571 -0.299193 -0.300509
v 0.340110 -0.299193 0.410194
v 0.340110 -0.199193 0.410194
v 0.384309 -0.299193 -0.251705
v 0.384309 -0.199193 -0.251705
v -0.390769 -0.285731 0.361390
v -0.390769 -0.212655 0.361390
v -0.347468 -0.285731 -0.287077
v -0.347468 -0.212655 -0.287077
v -0.340659 -0.284977 -0.280700
v -0.383173 -0.284977 0.355974
v -0.340659 -0.213408 -0.280700
v -0.383173 -0.213408 0.355974
v 0.333302 -0.284977 0.403817
v 0.333302 -0.213408 0.403817
v 0.375816 -0.284977 -0.232857
v 0.375816 -0.213408 -0.232857
v -0.346924 -0.261372 -0.295224
v -0.346924 -0.237013 -0.295224
v 0.384853 -0.265859 -0.259851
v 0.384853 -0.232526 -0.259851
v -0.346027 -0.265859 -0.308656
v -0.346027 -0.232526 -0.308656
v 0.383956 -0.261372 -0.246419
v 0.383956 -0.237013 -0.246419
v -0.340115 -0.261121 -0.288846
v -0.340115 -0.237265 -0.288846
v -0.382765 -0.261121 0.349854
v -0.382765 -0.237265 0.349854
v 0.333711 -0.261121 0.397697
v 0.333711 -0.237265 0.397697
v 0.376360 -0.261121 -0.241004
v 0.376360 -0.237265 -0.241004
v 0.327127 -0.199256 0.366778
v 0.327127 -0.112718 -0.265240
v 0.327127 -0.099256 0.366778
v 0.327127 -0.185794 -0.265240
v -0.322784 -0.185794 -0.265240
v -0.322784 -0.112718 -0.265240
v -0.336246 -0.099256 0.366778
v -0.336246 -0.199256 0.366778
v 0.327127 -0.199256 -0.265240
v 0.327127 -0.099256 -0.265240
v -0.336246 -0.199256 -0.265240
v -0.336246 -0.099256 -0.265240
v 0.327127 -0.185794 0.366778
v 0.327127 -0.112718 0.366778
v -0.322784 -0.185794 0.366778
v -0.322784 -0.112718 0.366778
v -0.316875 -0.185041 0.360550
v 0.321217 -0.185041 0.360550
v -0.316875 -0.113472 0.360550
v 0.321217 -0.113472 0.360550
v 0.321217 -0.185041 -0.259012
v 0.321217 -0.113472 -0.259012
v -0.316875 -0.185041 -0.259012
v -0.316875 -0.113472 -0.259012
v -0.330949 -0.161435 0.366778
v -0.330949 -0.137077 0.366778
v -0.344411 -0.165923 -0.265240
v -0.344411 -0.132590 -0.265240
v -0.344411 -0.165923 0.366778
v -0.344411 -0.132589 0.366778
v -0.330949 -0.161436 -0.265240
v -0.330949 -0.137077 -0.265240
v -0.325039 -0.161184 0.360550
v -0.325039 -0.137328 0.360550
v 0.315083 -0.161184 0.360550
v 0.315083 -0.137328 0.360550
v 0.315083 -0.161184 -0.259012
v 0.315083 -0.137328 -0.259012
v -0.325039 -0.161184 -0.259012
v -0.325039 -0.137328 -0.259012
v 0.340775 -0.097813 0.351618
v 0.312822 -0.011275 -0.279781
v 0.340775 0.002187 0.351618
v 0.312822 -0.084351 -0.279781
v -0.336453 -0.084351 -0.251036
v -0.336453 -0.011275 -0.251036
v -0.321949 0.002187 0.380958
v -0.321949 -0.097813 0.380958
v 0.312822 -0.097813 -0.279781
v 0.312822 0.002187 -0.279781
v -0.349902 -0.097813 -0.250441
v -0.349902 0.002187 -0.250441
v 0.340775 -0.084351 0.351618
v 0.340775 -0.011275 0.351618
v -0.308500 -0.084351 0.380363
v -0.308500 -0.011275 0.380363
v -0.302872 -0.083598 0.373880
v 0.334596 -0.083598 0.345658
v -0.302872 -0.012029 0.373880
v 0.334596 -0.012029 0.345658
v 0.307193 -0.083598 -0.273298
v 0.307193 -0.012029 -0.273298
v -0.330274 -0.083598 -0.245076
v -0.330274 -0.012029 -0.245076
v -0.316657 -0.059992 0.380724
v -0.316657 -0.035634 0.380724
v -0.358059 -0.064480 -0.250080
v -0.358059 -0.031146 -0.250080
v -0.330105 -0.064480 0.381319
v -0.330105 -0.031146 0.381319
v -0.344610 -0.059992 -0.250675
v -0.344610 -0.035634 -0.250675
v -0.311029 -0.059741 0.374241
v -0.311029 -0.035885 0.374241
v 0.328468 -0.059741 0.345929
v 0.328468 -0.035885 0.345929
v 0.301065 -0.059741 -0.273027
v 0.301065 -0.035885 -0.273027
v -0.338431 -0.059741 -0.244715
v -0.338431 -0.035885 -0.244715
vn 0.0552 -0.0000 0.9985
vn -0.5818 0.2508 0.7737
vn 0.1037 -0.9946 -0.0057
vn -0.9985 -0.0000 0.0552
vn -0.0000 -1.0000 -0.0000
vn 0.9985 -0.0000 -0.0552
vn 0.0070 -0.9920 0.1263
vn -0.0000 1.0000 -0.0000
vn -0.0537 -0.2379 -0.9698
vn 0.0535 -0.2490 0.9670
vn -0.1037 0.9946 0.0057
vn 0.0070 0.9920 0.1263
vn 0.1037 0.9946 -0.0057
vn 0.6636 -0.2508 0.7048
vn -0.1037 -0.9946 0.0057
vn 0.6636 0.2508 0.7048
vn 0.6753 -0.0000 0.7376
vn 0.0535 0.2490 0.9670
vn -0.0537 0.2379 -0.9698
vn -0.0552 -0.0000 -0.9985
vn -0.5818 -0.2508 0.7737
vn -0.5898 -0.0000 0.8076
vn -0.0000 -0.0000 1.0000
vn -0.6236 0.2508 0.7404
vn 0.1038 -0.9946 -0.0000
vn -1.0000 -0.0000 -0.0000
vn 1.0000 -0.0000 -0.0000
vn -0.0000 -0.9920 0.1265
vn -0.0000 -0.2379 -0.9713
vn -0.0000 -0.2490 0.9685
vn -0.1038 0.9946 -0.0000
vn -0.0000 0.9920 0.1265
vn 0.1038 0.9946 -0.0000
vn 0.6236 -0.2508 0.7404
vn -0.1038 -0.9946 -0.0000
vn 0.6236 0.2508 0.7404
vn 0.6335 -0.0000 0.7738
vn -0.0000 0.2490 0.9685
vn -0.0000 0.2379 -0.9713
vn -0.0000 -0.0000 -1.0000
vn -0.6236 -0.2508 0.7404
vn -0.6335 -0.0000 0.7738
vn -0.0666 -0.0000 0.9978
vn -0.6716 0.2508 0.6972
vn 0.1036 -0.9946 0.0069
vn -0.9978 -0.0000 -0.0666
vn 0.9978 -0.0000 0.0666
vn -0.0084 -0.9920 0.1262
vn 0.0647 -0.2379 -0.9691
vn -0.0645 -0.2490 0.9663
vn -0.1036 0.9946 -0.0069
vn -0.0084 0.9920 0.1262
vn 0.1036 0.9946 0.0069
vn 0.5729 -0.2508 0.7803
vn -0.1036 -0.9946 -0.0069
vn 0.5729 0.2508 0.7803
vn 0.5805 -0.0000 0.8143
vn -0.0645 0.2490 0.9663
vn 0.0647 0.2379 -0.9691
vn 0.0666 -0.0000 -0.9978
vn -0.6716 -0.2508 0.6972
vn -0.6836 -0.0000 0.7298
vn 0.6954 0.2355 0.6789
vn -0.0000 -0.9928 -0.1201
vn 0.1265 -0.9920 -0.0000
vn -0.9713 -0.2379 -0.0000
vn 0.9685 -0.2490 -0.0000
vn -0.0000 0.9928 0.1201
vn 0.1265 0.9920 -0.0000
vn -0.0000 0.9928 -0.1201
vn 0.6954 -0.2355 -0.6789
vn -0.0000 -0.9928 0.1201
vn 0.6954 0.2355 -0.6789
vn 0.7254 -0.0000 -0.6883
vn 0.9685 0.2490 -0.0000
vn -0.9713 0.2379 -0.0000
vn 0.6954 -0.2355 0.6789
vn 0.7254 -0.0000 0.6883
vn 0.9990 -0.0000 -0.0442
vn 0.7248 0.2355 0.6475
vn -0.0053 -0.9928 -0.1200
vn 0.0442 -0.0000 0.9990
vn -0.0442 -0.0000 -0.9990
vn 0.1264 -0.9920 -0.0056
vn -0.9703 -0.2379 0.0430
vn 0.9675 -0.2490 -0.0428
vn 0.0053 0.9928 0.1200
vn 0.1264 0.9920 -0.0056
vn -0.0053 0.9928 -0.1200
vn 0.6647 -0.2355 -0.7090
vn 0.0053 -0.9928 0.1200
vn 0.6647 0.2355 -0.7090
vn 0.6943 -0.0000 -0.7197
vn 0.9675 0.2490 -0.0428
vn -0.9703 0.2379 0.0430
vn -0.9990 -0.0000 0.0442
vn 0.7248 -0.2355 0.6475
vn 0.7551 -0.0000 0.6556
vt 0.555894 0.253847
vt 0.555894 0.254144
vt 0.535657 0.254144
vt 0.535657 0.253847
vt 0.551664 0.273155
vt 0.551449 0.273737
vt 0.551173 0.273649
vt 0.551415 0.273141
vt 0.536213 0.261357
vt 0.552021 0.256476
vt 0.551939 0.256679
vt 0.536495 0.261440
vt 0.551657 0.272653
vt 0.551445 0.272073
vt 0.551919 0.271873
vt 0.552014 0.272576
vt 0.535657 0.267615
vt 0.535780 0.267360
vt 0.535657 0.278235
vt 0.551925 0.273937
vt 0.535781 0.278489
vt 0.543681 0.261135
vt 0.528477 0.261135
vt 0.528477 0.247311
vt 0.543681 0.247311
vt 0.536019 0.261948
vt 0.535657 0.261879
vt 0.535725 0.261165
vt 0.551887 0.256222
vt 0.552021 0.267094
vt 0.551909 0.267347
vt 0.535805 0.263229
vt 0.536266 0.263020
vt 0.535866 0.253716
vt 0.555685 0.253716
vt 0.543681 0.274975
vt 0.528477 0.274975
vt 0.528477 0.261151
vt 0.543681 0.261151
vt 0.555894 0.254157
vt 0.555894 0.254453
vt 0.535657 0.254453
vt 0.535657 0.254157
vt 0.555894 0.252947
vt 0.555894 0.253702
vt 0.535657 0.253702
vt 0.535657 0.252947
vt 0.922374 0.884149
vt 0.922775 0.885337
vt 0.886095 0.885337
vt 0.885562 0.884149
vt 0.922374 0.879367
vt 0.885562 0.879367
vt 0.886095 0.878180
vt 0.922775 0.878180
vt 0.921477 0.879926
vt 0.921477 0.880871
vt 0.886952 0.880871
vt 0.886952 0.879926
vt 0.535745 0.278036
vt 0.555685 0.254585
vt 0.535866 0.254585
vt 0.536535 0.262927
vt 0.551927 0.266900
vt 0.536269 0.261959
vt 0.551169 0.272162
vt 0.535746 0.267812
vt 0.536034 0.262451
vt 0.536278 0.262432
vt 0.920464 0.880637
vt 0.920464 0.881582
vt 0.885939 0.881582
vt 0.885939 0.880637
vt 0.919958 0.881068
vt 0.919958 0.881984
vt 0.885432 0.881984
vt 0.885432 0.881068
vt 0.922775 0.881743
vt 0.886095 0.881743
vt 0.885562 0.880555
vt 0.922374 0.880555
vt 0.922775 0.881773
vt 0.922374 0.882961
vt 0.885562 0.882961
vt 0.886095 0.881773
vt 0.555894 0.251456
vt 0.555894 0.252212
vt 0.535657 0.252212
vt 0.535657 0.251456
vt 0.535686 0.262537
vt 0.552017 0.273234
vt 0.551412 0.272668
vt 0.099418 0.919430
vt 0.099418 0.919727
vt 0.079182 0.919727
vt 0.079182 0.919430
vt 0.095189 0.938739
vt 0.094974 0.939320
vt 0.094698 0.939232
vt 0.094939 0.938724
vt 0.079737 0.926940
vt 0.095546 0.922060
vt 0.095464 0.922262
vt 0.080020 0.927024
vt 0.095182 0.938236
vt 0.094970 0.937657
vt 0.095444 0.937456
vt 0.095539 0.938159
vt 0.079182 0.933198
vt 0.079305 0.932944
vt 0.079182 0.943818
vt 0.095449 0.939520
vt 0.079306 0.944072
vt 0.087205 0.926718
vt 0.072002 0.926718
vt 0.072002 0.912894
vt 0.087205 0.912894
vt 0.079544 0.927531
vt 0.079182 0.927462
vt 0.079249 0.926748
vt 0.095411 0.921805
vt 0.095546 0.932677
vt 0.095434 0.932930
vt 0.079330 0.928812
vt 0.079791 0.928603
vt 0.079390 0.919299
vt 0.099210 0.919299
vt 0.087205 0.940558
vt 0.072002 0.940558
vt 0.072002 0.926734
vt 0.087205 0.926734
vt 0.099418 0.919740
vt 0.099418 0.920037
vt 0.079182 0.920037
vt 0.079182 0.919740
vt 0.099418 0.918530
vt 0.099418 0.919286
vt 0.079182 0.919286
vt 0.079182 0.918530
vt 0.079270 0.943620
vt 0.099210 0.920168
vt 0.079390 0.920168
vt 0.080060 0.928510
vt 0.095451 0.932483
vt 0.079794 0.927542
vt 0.094694 0.937745
vt 0.079270 0.933395
vt 0.079558 0.928034
vt 0.079802 0.928015
vt 0.099418 0.917040
vt 0.099418 0.917795
vt 0.079182 0.917795
vt 0.079182 0.917040
vt 0.079210 0.928120
vt 0.095542 0.938817
vt 0.094937 0.938251
vt 0.675242 0.489145
vt 0.675242 0.489441
vt 0.655005 0.489441
vt 0.655005 0.489145
vt 0.671012 0.508453
vt 0.670797 0.509035
vt 0.670521 0.508946
vt 0.670763 0.508439
vt 0.655561 0.496655
vt 0.671369 0.491774
vt 0.671287 0.491977
vt 0.655843 0.496738
vt 0.671005 0.507951
vt 0.670793 0.507371
vt 0.671267 0.507170
vt 0.671362 0.507873
vt 0.655005 0.502912
vt 0.655128 0.502658
vt 0.655005 0.513532
vt 0.671273 0.509235
vt 0.655129 0.513786
vt 0.663029 0.496432
vt 0.647825 0.496432
vt 0.647825 0.482608
vt 0.663029 0.482608
vt 0.655367 0.497246
vt 0.655005 0.497176
vt 0.655073 0.496462
vt 0.671235 0.491520
vt 0.671369 0.502392
vt 0.671257 0.502645
vt 0.655153 0.498526
vt 0.655614 0.498318
vt 0.655214 0.489014
vt 0.675033 0.489014
vt 0.663029 0.510272
vt 0.647825 0.510272
vt 0.647825 0.496448
vt 0.663029 0.496448
vt 0.675242 0.489455
vt 0.675242 0.489751
vt 0.655005 0.489751
vt 0.655005 0.489455
vt 0.675242 0.488244
vt 0.675242 0.489000
vt 0.655005 0.489000
vt 0.655005 0.488244
vt 0.655093 0.513334
vt 0.675033 0.489882
vt 0.655214 0.489882
vt 0.655883 0.498225
vt 0.671275 0.502198
vt 0.655617 0.497256
vt 0.670517 0.507460
vt 0.655094 0.503110
vt 0.655382 0.497748
vt 0.655626 0.497730
vt 0.675242 0.486754
vt 0.675242 0.487510
vt 0.655005 0.487510
vt 0.655005 0.486754
vt 0.655034 0.497835
vt 0.671365 0.508531
vt 0.670760 0.507966
vt 0.350418 0.396338
vt 0.350418 0.396635
vt 0.330182 0.396635
vt 0.330182 0.396338
vt 0.346189 0.415646
vt 0.345974 0.416228
vt 0.345698 0.416140
vt 0.345939 0.415632
vt 0.330737 0.403848
vt 0.346546 0.398967
vt 0.346464 0.399170
vt 0.331020 0.403931
vt 0.346181 0.415144
vt 0.345969 0.414564
vt 0.346444 0.414364
vt 0.346539 0.415067
vt 0.330182 0.410106
vt 0.330304 0.409852
vt 0.330182 0.420726
vt 0.346449 0.416428
vt 0.330305 0.420980
vt 0.338205 0.403626
vt 0.323002 0.403626
vt 0.323002 0.389802
vt 0.338205 0.389802
vt 0.330544 0.404439
vt 0.330182 0.404370
vt 0.330249 0.403656
vt 0.346411 0.398713
vt 0.346546 0.409585
vt 0.346434 0.409838
vt 0.330330 0.405720
vt 0.330791 0.405511
vt 0.330390 0.396207
vt 0.350210 0.396207
vt 0.338205 0.417466
vt 0.323002 0.417466
vt 0.323002 0.403642
vt 0.338205 0.403642
vt 0.350418 0.396648
vt 0.350418 0.396944
vt 0.330182 0.396944
vt 0.330182 0.396648
vt 0.350418 0.395438
vt 0.350418 0.396194
vt 0.330182 0.396194
vt 0.330182 0.395438
vt 0.330270 0.420527
vt 0.350210 0.397076
vt 0.330390 0.397076
vt 0.331060 0.405418
vt 0.346451 0.409391
vt 0.330793 0.404450
vt 0.345694 0.414653
vt 0.330270 0.410303
vt 0.330558 0.404942
vt 0.330802 0.404923
vt 0.350418 0.393948
vt 0.350418 0.394703
vt 0.330182 0.394703
vt 0.330182 0.393948
vt 0.330210 0.405028
vt 0.346542 0.415725
vt 0.345937 0.415159
vt 0.542359 0.631636
vt 0.542359 0.631932
vt 0.522123 0.631932
vt 0.522123 0.631636
vt 0.538130 0.650944
vt 0.537915 0.651526
vt 0.537639 0.651438
vt 0.537880 0.650930
vt 0.522678 0.639146
vt 0.538487 0.634265
vt 0.538405 0.634468
vt 0.522961 0.639229
vt 0.538122 0.650442
vt 0.537911 0.649862
vt 0.538385 0.649661
vt 0.538480 0.650364
vt 0.522123 0.645403
vt 0.522245 0.645149
vt 0.522123 0.656023
vt 0.538390 0.651726
vt 0.522247 0.656277
vt 0.530146 0.638923
vt 0.514943 0.638923
vt 0.514943 0.625100
vt 0.530146 0.625100
vt 0.522485 0.639737
vt 0.522123 0.639668
vt 0.522190 0.638953
vt 0.538352 0.634011
vt 0.538487 0.644883
vt 0.538375 0.645136
vt 0.522271 0.641017
vt 0.522732 0.640809
vt 0.522331 0.631505
vt 0.542151 0.631505
vt 0.530146 0.652763
vt 0.514943 0.652763
vt 0.514943 0.638939
vt 0.530146 0.638939
vt 0.542359 0.631946
vt 0.542359 0.632242
vt 0.522123 0.632242
vt 0.522123 0.631946
vt 0.542359 0.630735
vt 0.542359 0.631491
vt 0.522123 0.631491
vt 0.522123 0.630735
vt 0.522211 0.655825
vt 0.542151 0.632373
vt 0.522331 0.632373
vt 0.523001 0.640716
vt 0.538392 0.644689
vt 0.522735 0.639747
vt 0.537635 0.649951
vt 0.522211 0.645601
vt 0.522499 0.640239
vt 0.522743 0.640221
vt 0.542359 0.629245
vt 0.542359 0.630001
vt 0.522123 0.630001
vt 0.522123 0.629245
vt 0.522151 0.640326
vt 0.538483 0.651022
vt 0.537878 0.650457
s 0
g Books_2_Books
usemtl Books
f 2/1/1 10/2/1 3/3/1 14/4/1
f 25/5/2 15/6/2 17/7/2 33/8/2
f 6/9/3 2/10/3 22/11/3 24/12/3
f 26/13/4 16/14/4 7/15/4 30/16/4
f 16/14/4 14/17/4 3/18/4 7/15/4
f 13/19/4 15/6/4 8/20/4 1/21/4
f 11/22/5 9/23/5 1/24/5 8/25/5
f 32/26/6 28/27/6 12/28/6 6/9/6
f 6/9/6 12/28/6 10/29/6 2/10/6
f 4/30/6 9/31/6 11/32/6 5/33/6
f 2/1/7 14/4/7 20/34/7 22/35/7
f 10/36/8 12/37/8 7/38/8 3/39/8
f 9/40/1 4/41/1 13/42/1 1/43/1
f 27/44/9 11/45/9 8/46/9 29/47/9
f 36/48/4 20/49/4 19/50/4 34/51/4
f 38/52/6 40/53/6 24/54/6 22/55/6
f 38/56/10 22/57/10 20/58/10 36/59/10
f 15/6/11 13/19/11 18/60/11 17/7/11
f 13/42/12 4/41/12 21/61/12 18/62/12
f 4/30/13 5/33/13 23/63/13 21/64/13
f 32/26/14 6/9/14 24/12/14 40/65/14
f 14/17/15 16/14/15 19/66/15 20/67/15
f 5/33/16 31/68/16 39/69/16 23/63/16
f 31/68/17 32/26/17 40/65/17 39/69/17
f 21/70/18 37/71/18 35/72/18 18/73/18
f 37/74/1 38/75/1 36/76/1 35/77/1
f 21/78/6 23/79/6 39/80/6 37/81/6
f 37/81/6 39/80/6 40/53/6 38/52/6
f 18/82/4 35/83/4 33/84/4 17/85/4
f 35/83/4 36/48/4 34/51/4 33/84/4
f 12/86/19 28/87/19 30/88/19 7/89/19
f 28/87/20 27/44/20 29/47/20 30/88/20
f 5/33/6 11/32/6 27/90/6 31/68/6
f 31/68/6 27/90/6 28/27/6 32/26/6
f 15/6/4 25/5/4 29/91/4 8/20/4
f 25/5/4 26/13/4 30/16/4 29/91/4
f 16/14/21 26/13/21 34/92/21 19/66/21
f 26/13/22 25/5/22 33/8/22 34/92/22
f 42/93/23 50/94/23 43/95/23 54/96/23
f 65/97/24 55/98/24 57/99/24 73/100/24
f 46/101/25 42/102/25 62/103/25 64/104/25
f 66/105/26 56/106/26 47/107/26 70/108/26
f 56/106/26 54/109/26 43/110/26 47/107/26
f 53/111/26 55/98/26 48/112/26 41/113/26
f 51/114/5 49/115/5 41/116/5 48/117/5
f 72/118/27 68/119/27 52/120/27 46/101/27
f 46/101/27 52/120/27 50/121/27 42/102/27
f 44/122/27 49/123/27 51/124/27 45/125/27
f 42/93/28 54/96/28 60/126/28 62/127/28
f 50/128/8 52/129/8 47/130/8 43/131/8
f 49/132/23 44/133/23 53/134/23 41/135/23
f 67/136/29 51/137/29 48/138/29 69/139/29
f 76/48/26 60/49/26 59/50/26 74/51/26
f 78/52/27 80/53/27 64/54/27 62/55/27
f 78/56/30 62/57/30 60/58/30 76/59/30
f 55/98/31 53/111/31 58/140/31 57/99/31
f 53/134/32 44/133/32 61/141/32 58/142/32
f 44/122/33 45/125/33 63/143/33 61/144/33
f 72/118/34 46/101/34 64/104/34 80/145/34
f 54/109/35 56/106/35 59/146/35 60/147/35
f 45/125/36 71/148/36 79/149/36 63/143/36
f 71/148/37 72/118/37 80/145/37 79/149/37
f 61/70/38 77/71/38 75/72/38 58/73/38
f 77/74/23 78/75/23 76/76/23 75/77/23
f 61/78/27 63/79/27 79/80/27 77/81/27
f 77/81/27 79/80/27 80/53/27 78/52/27
f 58/82/26 75/83/26 73/84/26 57/85/26
f 75/83/26 76/48/26 74/51/26 73/84/26
f 52/150/39 68/151/39 70/152/39 47/153/39
f 68/151/40 67/136/40 69/139/40 70/152/40
f 45/125/27 51/124/27 67/154/27 71/148/27
f 71/148/27 67/154/27 68/119/27 72/118/27
f 55/98/26 65/97/26 69/155/26 48/112/26
f 65/97/26 66/105/26 70/108/26 69/155/26
f 56/106/41 66/105/41 74/156/41 59/146/41
f 66/105/42 65/97/42 73/100/42 74/156/42
f 82/157/43 90/158/43 83/159/43 94/160/43
f 105/161/44 95/162/44 97/163/44 113/164/44
f 86/165/45 82/166/45 102/167/45 104/168/45
f 106/169/46 96/170/46 87/171/46 110/172/46
f 96/170/46 94/173/46 83/174/46 87/171/46
f 93/175/46 95/162/46 88/176/46 81/177/46
f 91/178/5 89/179/5 81/180/5 88/181/5
f 112/182/47 108/183/47 92/184/47 86/165/47
f 86/165/47 92/184/47 90/185/47 82/166/47
f 84/186/47 89/187/47 91/188/47 85/189/47
f 82/157/48 94/160/48 100/190/48 102/191/48
f 90/192/8 92/193/8 87/194/8 83/195/8
f 89/196/43 84/197/43 93/198/43 81/199/43
f 107/200/49 91/201/49 88/202/49 109/203/49
f 116/48/46 100/49/46 99/50/46 114/51/46
f 118/52/47 120/53/47 104/54/47 102/55/47
f 118/56/50 102/57/50 100/58/50 116/59/50
f 95/162/51 93/175/51 98/204/51 97/163/51
f 93/198/52 84/197/52 101/205/52 98/206/52
f 84/186/53 85/189/53 103/207/53 101/208/53
f 112/182/54 86/165/54 104/168/54 120/209/54
f 94/173/55 96/170/55 99/210/55 100/211/55
f 85/189/56 111/212/56 119/213/56 103/207/56
f 111/212/57 112/182/57 120/209/57 119/213/57
f 101/70/58 117/71/58 115/72/58 98/73/58
f 117/74/43 118/75/43 116/76/43 115/77/43
f 101/78/47 103/79/47 119/80/47 117/81/47
f 117/81/47 119/80/47 120/53/47 118/52/47
f 98/82/46 115/83/46 113/84/46 97/85/46
f 115/83/46 116/48/46 114/51/46 113/84/46
f 92/214/59 108/215/59 110/216/59 87/217/59
f 108/215/60 107/200/60 109/203/60 110/216/60
f 85/189/47 91/188/47 107/218/47 111/212/47
f 111/212/47 107/218/47 108/183/47 112/182/47
f 95/162/46 105/161/46 109/219/46 88/176/46
f 105/161/46 106/169/46 110/172/46 109/219/46
f 96/170/61 106/169/61 114/220/61 99/210/61
f 106/169/62 105/161/62 113/164/62 114/220/62
f 122/221/27 130/222/27 123/223/27 134/224/27
f 145/225/63 135/226/63 137/227/63 153/228/63
f 126/229/64 122/230/64 142/231/64 144/232/64
f 146/233/23 136/234/23 127/235/23 150/236/23
f 136/234/23 134/237/23 123/238/23 127/235/23
f 133/239/23 135/226/23 128/240/23 121/241/23
f 131/242/5 129/243/5 121/244/5 128/245/5
f 152/246/40 148/247/40 132/248/40 126/229/40
f 126/229/40 132/248/40 130/249/40 122/230/40
f 124/250/40 129/251/40 131/252/40 125/253/40
f 122/221/65 134/224/65 140/254/65 142/255/65
f 130/256/8 132/257/8 127/258/8 123/259/8
f 129/260/27 124/261/27 133/262/27 121/263/27
f 147/264/66 131/265/66 128/266/66 149/267/66
f 156/48/23 140/49/23 139/50/23 154/51/23
f 158/52/40 160/53/40 144/54/40 142/55/40
f 158/56/67 142/57/67 140/58/67 156/59/67
f 135/226/68 133/239/68 138/268/68 137/227/68
f 133/262/69 124/261/69 141/269/69 138/270/69
f 124/250/70 125/253/70 143/271/70 141/272/70
f 152/246/71 126/229/71 144/232/71 160/273/71
f 134/237/72 136/234/72 139/274/72 140/275/72
f 125/253/73 151/276/73 159/277/73 143/271/73
f 151/276/74 152/246/74 160/273/74 159/277/74
f 141/70/75 157/71/75 155/72/75 138/73/75
f 157/74/27 158/75/27 156/76/27 155/77/27
f 141/78/40 143/79/40 159/80/40 157/81/40
f 157/81/40 159/80/40 160/53/40 158/52/40
f 138/82/23 155/83/23 153/84/23 137/85/23
f 155/83/23 156/48/23 154/51/23 153/84/23
f 132/278/76 148/279/76 150/280/76 127/281/76
f 148/279/26 147/264/26 149/267/26 150/280/26
f 125/253/40 131/252/40 147/282/40 151/276/40
f 151/276/40 147/282/40 148/247/40 152/246/40
f 135/226/23 145/225/23 149/283/23 128/240/23
f 145/225/23 146/233/23 150/236/23 149/283/23
f 136/234/77 146/233/77 154/284/77 139/274/77
f 146/233/78 145/225/78 153/228/78 154/284/78
f 162/285/79 170/286/79 163/287/79 174/288/79
f 185/289/80 175/290/80 177/291/80 193/292/80
f 166/293/81 162/294/81 182/295/81 184/296/81
f 186/297/82 176/298/82 167/299/82 190/300/82
f 176/298/82 174/301/82 163/302/82 167/299/82
f 173/303/82 175/290/82 168/304/82 161/305/82
f 171/306/5 169/307/5 161/308/5 168/309/5
f 192/310/83 188/311/83 172/312/83 166/293/83
f 166/293/83 172/312/83 170/313/83 162/294/83
f 164/314/83 169/315/83 171/316/83 165/317/83
f 162/285/84 174/288/84 180/318/84 182/319/84
f 170/320/8 172/321/8 167/322/8 163/323/8
f 169/324/79 164/325/79 173/326/79 161/327/79
f 187/328/85 171/329/85 168/330/85 189/331/85
f 196/48/82 180/49/82 179/50/82 194/51/82
f 198/52/83 200/53/83 184/54/83 182/55/83
f 198/56/86 182/57/86 180/58/86 196/59/86
f 175/290/87 173/303/87 178/332/87 177/291/87
f 173/326/88 164/325/88 181/333/88 178/334/88
f 164/314/89 165/317/89 183/335/89 181/336/89
f 192/310/90 166/293/90 184/296/90 200/337/90
f 174/301/91 176/298/91 179/338/91 180/339/91
f 165/317/92 191/340/92 199/341/92 183/335/92
f 191/340/93 192/310/93 200/337/93 199/341/93
f 181/70/94 197/71/94 195/72/94 178/73/94
f 197/74/79 198/75/79 196/76/79 195/77/79
f 181/78/83 183/79/83 199/80/83 197/81/83
f 197/81/83 199/80/83 200/53/83 198/52/83
f 178/82/82 195/83/82 193/84/82 177/85/82
f 195/83/82 196/48/82 194/51/82 193/84/82
f 172/342/95 188/343/95 190/344/95 167/345/95
f 188/343/96 187/328/96 189/331/96 190/344/96
f 165/317/83 171/316/83 187/346/83 191/340/83
f 191/340/83 187/346/83 188/311/83 192/310/83
f 175/290/82 185/289/82 189/347/82 168/304/82
f 185/289/82 186/297/82 190/300/82 189/347/82
f 176/298/97 186/297/97 194/348/97 179/338/97
f 186/297/98 185/289/98 193/292/98 194/348/98
