# Blender 4.2.2 LTS
# www.blender.org
mtllib pcity_nodes_table_middle.mtl
o Middle
v -0.500000 1.200000 -0.500000
v 0.500000 1.200000 -0.500000
v -0.500000 1.200000 0.500000
v 0.500000 1.200000 0.500000
v 0.500000 1.050000 -0.500000
v -0.500000 1.050000 -0.500000
v 0.500000 1.050000 0.500000
v -0.500000 1.050000 0.500000
vn -0.0000 1.0000 -0.0000
vn -1.0000 -0.0000 -0.0000
vn -0.0000 -0.0000 1.0000
vn -0.0000 -0.0000 -1.0000
vn -0.0000 -1.0000 -0.0000
vn 1.0000 -0.0000 -0.0000
vt 0.475056 0.495837
vt 0.475056 0.491679
vt 0.479214 0.491679
vt 0.479214 0.495837
vt 0.475056 0.499995
vt 0.470898 0.499995
vt 0.470898 0.495837
vt 0.470898 0.491679
vt 0.475056 0.487521
vt 0.470898 0.487521
vt 0.470898 0.483362
vt 0.475056 0.483362
vt 0.466739 0.495837
vt 0.466739 0.491679
s 0
g Middle_Wood
usemtl Wood
f 3/1/1 4/2/1 2/3/1 1/4/1
f 3/1/2 1/5/2 6/6/2 8/7/2
f 4/2/3 3/1/3 8/7/3 7/8/3
f 2/9/4 5/10/4 6/11/4 1/12/4
f 8/7/5 6/13/5 5/14/5 7/8/5
f 2/9/6 4/2/6 7/8/6 5/10/6
