# Blender 4.3.0
# www.blender.org
mtllib pcity_nodes_shelf_1_double_shallow_right.mtl
o Shelf_Right.003
v -0.500000 -0.500000 0.500000
v -0.500000 0.500000 0.500000
v -0.400000 -0.400000 -0.100000
v -0.400000 0.400000 -0.100000
v -0.500000 -0.500000 -0.100000
v -0.500000 0.500000 -0.100000
v -0.400000 -0.400000 0.400000
v -0.400000 0.400000 0.400000
v 0.500000 -0.500000 -0.100000
v 0.500000 0.500000 -0.100000
v 0.500000 -0.500000 0.500000
v 0.500000 0.500000 0.500000
v 0.500000 -0.400000 -0.100000
v 0.500000 0.400000 -0.100000
v 0.500000 -0.400000 0.400000
v 0.500000 0.400000 0.400000
v -0.400000 0.050000 0.400000
v -0.400000 -0.050000 0.400000
v 0.500000 0.050000 0.400000
v 0.500000 -0.050000 0.400000
v -0.400000 0.050000 -0.100000
v -0.400000 -0.050000 -0.100000
v 0.500000 0.050000 -0.100000
v 0.500000 -0.050000 -0.100000
v -0.500000 0.050000 -0.100000
v -0.500000 0.050000 0.500000
v 0.500000 0.050000 0.500000
v -0.500000 -0.050000 -0.100000
v -0.500000 -0.050000 0.500000
v 0.500000 -0.050000 0.500000
vn -0.0000 -1.0000 -0.0000
vn -0.0000 -0.0000 -1.0000
vn 1.0000 -0.0000 -0.0000
vn -0.0000 1.0000 -0.0000
vn -0.0000 -0.0000 1.0000
vn -1.0000 -0.0000 -0.0000
vt 0.600062 0.596175
vt 0.590206 0.596175
vt 0.590206 0.603684
vt 0.600062 0.603684
vt 0.590194 0.579475
vt 0.579243 0.579475
vt 0.579243 0.587819
vt 0.590194 0.587819
vt 0.611026 0.587819
vt 0.612121 0.587819
vt 0.612121 0.579475
vt 0.611026 0.580309
vt 0.600075 0.599512
vt 0.609931 0.599512
vt 0.609931 0.596175
vt 0.600075 0.596175
vt 0.600062 0.608134
vt 0.590206 0.608134
vt 0.590206 0.610359
vt 0.600062 0.610359
vt 0.609931 0.610359
vt 0.609931 0.602850
vt 0.600075 0.602850
vt 0.600075 0.610359
vt 0.602265 0.580309
vt 0.601170 0.579475
vt 0.601170 0.587819
vt 0.602265 0.587819
vt 0.590194 0.596162
vt 0.579243 0.596162
vt 0.579243 0.604506
vt 0.590194 0.604506
vt 0.600062 0.579475
vt 0.600062 0.586984
vt 0.601157 0.587819
vt 0.601157 0.579475
vt 0.591301 0.586984
vt 0.591301 0.579475
vt 0.590206 0.579475
vt 0.590206 0.587819
vt 0.597142 0.586984
vt 0.598420 0.587819
vt 0.595682 0.596162
vt 0.595682 0.587819
vt 0.590206 0.596162
vt 0.590206 0.607021
vt 0.600062 0.607021
vt 0.609931 0.600625
vt 0.600075 0.600625
vt 0.595682 0.586984
vt 0.609383 0.579475
vt 0.608106 0.580309
vt 0.590194 0.591990
vt 0.579243 0.591990
vt 0.590194 0.589904
vt 0.579243 0.589904
vt 0.598420 0.596162
vt 0.601157 0.596162
vt 0.606645 0.580309
vt 0.606645 0.579475
s 0
g Shelf_Right.003_Wood.002
usemtl Wood.002
f 14/1/1 16/2/1 8/3/1 4/4/1
f 9/5/1 11/6/1 1/7/1 5/8/1
f 13/9/2 9/10/2 5/11/2 3/12/2
f 19/13/2 17/14/2 8/15/2 16/16/2
f 22/17/3 18/18/3 7/19/3 3/20/3
f 3/21/4 7/22/4 15/23/4 13/24/4
f 4/25/2 6/26/2 10/27/2 14/28/2
f 6/29/4 2/30/4 12/31/4 10/32/4
f 13/33/3 15/34/3 11/35/3 9/36/3
f 16/37/3 14/38/3 10/39/3 12/40/3
f 15/34/3 20/41/3 30/42/3 11/35/3
f 26/43/5 27/44/5 12/40/5 2/45/5
f 4/4/3 8/3/3 17/46/3 21/47/3
f 15/23/2 7/22/2 18/48/2 20/49/2
f 20/41/3 24/41/3 23/50/3 19/50/3
f 3/12/2 5/11/2 28/51/2 22/52/2
f 25/53/6 26/54/6 2/30/6 6/29/6
f 24/49/2 22/48/2 21/14/2 23/13/2
f 18/48/1 22/48/1 24/49/1 20/49/1
f 19/13/4 23/13/4 21/14/4 17/14/4
f 28/55/6 29/56/6 26/54/6 25/53/6
f 29/57/5 30/42/5 27/44/5 26/43/5
f 1/58/5 11/35/5 30/42/5 29/57/5
f 5/8/6 1/7/6 29/56/6 28/55/6
f 21/59/2 25/60/2 6/26/2 4/25/2
f 22/52/2 28/51/2 25/60/2 21/59/2
f 27/44/3 19/50/3 16/37/3 12/40/3
f 30/42/3 20/41/3 19/50/3 27/44/3
