# Blender 3.3.5
# www.blender.org
mtllib pcity_nodes_concrete_pillar_neck.mtl
o Cylinder
v -0.109940 -0.500000 -0.265418
v -0.039578 0.500000 -0.095550
v 0.109940 -0.500000 -0.265418
v 0.039578 0.500000 -0.095550
v 0.265418 -0.500000 -0.109940
v 0.095550 0.500000 -0.039578
v 0.265418 -0.500000 0.109940
v 0.095551 0.500000 0.039578
v 0.109940 -0.500000 0.265418
v 0.039578 0.500000 0.095550
v -0.109940 -0.500000 0.265418
v -0.039578 0.500000 0.095550
v -0.265418 -0.500000 0.109940
v -0.095550 0.500000 0.039578
v -0.265418 -0.500000 -0.109940
v -0.095550 0.500000 -0.039578
v 0.109940 0.000000 0.265418
v -0.109940 0.000000 0.265418
v -0.265418 0.000000 -0.109940
v -0.265418 0.000000 0.109940
v 0.265418 0.000000 0.109940
v 0.265418 0.000000 -0.109940
v -0.109940 0.000000 -0.265418
v 0.109940 0.000000 -0.265418
v -0.095550 0.010000 -0.039578
v 0.095551 0.010000 0.039578
v 0.039578 0.010000 0.095550
v -0.039578 0.010000 0.095550
v -0.095550 0.010000 0.039578
v 0.095550 0.010000 -0.039578
v -0.039578 0.010000 -0.095550
v 0.039578 0.010000 -0.095550
vn -1.0000 -0.0000 -0.0000
vn -0.7071 -0.0000 -0.7071
vn -0.0000 -0.0000 -1.0000
vn 0.7071 -0.0000 -0.7071
vn 0.7071 -0.0000 0.7071
vn -0.0000 -0.0000 1.0000
vn -0.0000 -1.0000 -0.0000
vn -0.7071 -0.0000 0.7071
vn -0.0000 1.0000 -0.0000
vn 1.0000 -0.0000 -0.0000
vn 0.0588 -0.9983 -0.0000
vn -0.0416 -0.9983 0.0416
vn -0.0000 -0.9983 0.0588
vn 0.0416 -0.9983 0.0416
vn 0.0416 -0.9983 -0.0416
vn -0.0000 -0.9983 -0.0588
vn -0.0416 -0.9983 -0.0416
vn -0.0588 -0.9983 -0.0000
vt 0.375000 0.715907
vt 0.900888 0.312500
vt 0.304320 0.272500
vt 0.295000 0.110719
vt 0.500000 0.715907
vt 0.900888 0.187500
vt 0.272500 0.304320
vt 0.250000 0.110719
vt 0.625000 0.715907
vt 0.812500 0.099112
vt 0.227500 0.304320
vt 0.205000 0.110719
vt 0.750000 0.715908
vt 0.687500 0.099112
vt 0.195680 0.272500
vt 0.160000 0.110719
vt 0.875000 0.715908
vt 0.599112 0.187500
vt 0.195680 0.227500
vt 0.115000 0.110719
vt 1.000000 0.715908
vt 0.000000 0.715908
vt 0.599112 0.312500
vt 0.227500 0.195680
vt 0.070000 0.110719
vt 0.430000 0.110719
vt 0.687500 0.400888
vt 0.125000 0.715908
vt 0.272500 0.195680
vt 0.385000 0.110719
vt 0.812500 0.400888
vt 0.250000 0.715907
vt 0.304320 0.227500
vt 0.340000 0.110719
vt 0.875000 1.000154
vt 0.188021 0.401302
vt 1.000000 1.000154
vt 0.000000 1.000154
vt 0.098698 0.311760
vt 0.099310 0.313238
vt 0.250000 1.000154
vt 0.188021 0.098698
vt 0.125000 1.000154
vt 0.099310 0.186762
vt 0.750000 1.000154
vt 0.313021 0.400996
vt 0.625000 1.000154
vt 0.401301 0.312500
vt 0.375000 1.000154
vt 0.313021 0.099004
vt 0.500000 1.000154
vt 0.401301 0.187500
vt 0.227785 0.195531
vt 0.340000 0.389281
vt 0.272785 0.304359
vt 0.160000 0.389281
vt 0.227785 0.304469
vt 0.115000 0.389281
vt 0.195629 0.272234
vt 0.195849 0.272766
vt 0.070000 0.389281
vt 0.430000 0.389281
vt 0.195849 0.227234
vt 0.385000 0.389281
vt 0.304566 0.272500
vt 0.205000 0.389281
vt 0.272785 0.195641
vt 0.295000 0.389281
vt 0.304566 0.227500
vt 0.250000 0.389281
s 0
f 22/47/1 5/9/1 7/13/1 21/45/1
f 21/45/2 7/13/2 9/17/2 17/35/2
f 17/35/3 9/17/3 11/21/3 18/37/3
f 18/38/4 11/22/4 13/28/4 20/43/4
f 19/41/5 15/32/5 1/1/5 23/49/5
f 23/49/6 1/1/6 3/5/6 24/51/6
f 4/7/7 6/11/7 8/15/7 10/19/7 12/24/7 14/29/7 16/33/7 2/3/7
f 24/51/8 3/5/8 5/9/8 22/47/8
f 3/6/9 1/2/9 15/31/9 13/27/9 11/23/9 9/18/9 7/14/9 5/10/9
f 20/43/10 13/28/10 15/32/10 19/41/10
f 29/63/11 20/44/11 19/42/11 25/53/11
f 32/69/12 24/52/12 22/48/12 30/65/12
f 31/67/13 23/50/13 24/52/13 32/69/13
f 25/53/14 19/42/14 23/50/14 31/67/14
f 28/59/15 18/39/15 20/44/15 29/63/15
f 27/57/16 17/36/16 18/40/16 28/60/16
f 26/55/17 21/46/17 17/36/17 27/57/17
f 30/65/18 22/48/18 21/46/18 26/55/18
f 6/12/1 30/66/1 26/56/1 8/16/1
f 8/16/2 26/56/2 27/58/2 10/20/2
f 10/20/3 27/58/3 28/61/3 12/25/3
f 12/26/4 28/62/4 29/64/4 14/30/4
f 16/34/5 25/54/5 31/68/5 2/4/5
f 2/4/6 31/68/6 32/70/6 4/8/6
f 4/8/8 32/70/8 30/66/8 6/12/8
f 14/30/10 29/64/10 25/54/10 16/34/10
