# Blender 3.3.5
# www.blender.org
mtllib pcity_nodes_concrete_pillar_L_junction.mtl
o Cylinder.003
v -0.109940 -0.500000 -0.265418
v 0.109940 -0.500000 -0.265418
v 0.265418 -0.500000 -0.109940
v 0.265418 -0.500000 0.109940
v 0.109940 -0.500000 0.265418
v -0.109940 -0.500000 0.265418
v -0.265418 -0.500000 0.109940
v -0.265418 -0.500000 -0.109940
v -0.109940 0.109940 -0.265418
v 0.109940 0.109940 -0.265418
v 0.109940 -0.109940 -0.265418
v -0.109940 -0.109940 -0.265418
v -0.109940 0.265418 0.500000
v 0.109940 0.265418 0.500000
v 0.265418 0.109940 0.500000
v 0.265418 -0.109940 0.500000
v 0.109940 -0.265418 0.500000
v -0.109940 -0.265418 0.500000
v -0.265418 -0.109940 0.500000
v -0.265418 0.109940 0.500000
v -0.109940 0.265418 0.109940
v 0.109940 0.265418 0.109940
v 0.265418 0.109940 0.109940
v 0.265418 -0.109940 0.109940
v -0.265418 -0.109940 0.109940
v -0.265418 0.109940 0.109940
v 0.109940 0.265418 -0.109940
v 0.265418 0.109940 -0.109940
v 0.265418 -0.109940 -0.109940
v -0.265418 -0.109940 -0.109940
v -0.265418 0.109940 -0.109940
v -0.109940 0.265418 -0.109940
v 0.109940 -0.265418 -0.265418
v 0.265418 -0.265418 -0.109940
v 0.265418 -0.265418 0.109940
v 0.109940 -0.265418 0.265418
v -0.109940 -0.265418 0.265418
v -0.265418 -0.265418 0.109940
v -0.265418 -0.265418 -0.109940
v -0.109940 -0.265418 -0.265418
v -0.109940 0.265418 0.265418
v 0.109940 0.265418 0.265418
v 0.265418 0.109940 0.265418
v 0.265418 -0.109940 0.265418
v 0.109940 -0.265418 0.265418
v -0.109940 -0.265418 0.265418
v -0.265418 -0.109940 0.265418
v -0.265418 0.109940 0.265418
v 0.109940 0.187679 -0.187679
v -0.109940 0.187679 -0.187679
vn -0.0000 -1.0000 -0.0000
vn -0.0000 -0.0000 -1.0000
vn -0.0000 1.0000 -0.0000
vn 0.7071 0.7071 -0.0000
vn 1.0000 -0.0000 -0.0000
vn 0.7071 -0.7071 -0.0000
vn -0.7071 -0.7071 -0.0000
vn -0.0000 -0.0000 1.0000
vn -1.0000 -0.0000 -0.0000
vn -0.7071 0.7071 -0.0000
vn -0.5774 0.5774 -0.5774
vn -0.0000 0.7071 -0.7071
vn 0.5774 0.5774 -0.5774
vn -0.7071 -0.0000 -0.7071
vn -0.7071 -0.0000 0.7071
vn 0.7071 -0.0000 0.7071
vn 0.7071 -0.0000 -0.7071
vt 0.798851 0.294866
vt 0.873054 0.581704
vt 0.714854 0.378863
vt 0.748244 0.581704
vt 0.596065 0.378863
vt 0.003390 0.993407
vt 0.621280 0.585985
vt 0.512068 0.294866
vt 0.122179 0.993407
vt 0.512068 0.176076
vt 0.240969 0.993407
vt 0.596065 0.092080
vt 0.359758 0.993407
vt 0.714854 0.092080
vt 0.478548 0.993407
vt 0.798851 0.176076
vt 0.995160 0.584623
vt 0.597337 0.993407
vt 0.867481 0.902131
vt 0.766681 0.907480
vt 0.756946 0.798013
vt 0.872213 0.794581
vt 0.428071 0.378863
vt 0.745819 0.577927
vt 0.870876 0.577927
vt 0.512068 0.294866
vt 0.993016 0.580866
vt 0.597337 0.993407
vt 0.512068 0.176076
vt 0.478548 0.993407
vt 0.428071 0.092080
vt 0.359758 0.993407
vt 0.309282 0.092080
vt 0.240969 0.993407
vt 0.225285 0.176076
vt 0.225285 0.294866
vt 0.122179 0.993407
vt 0.309282 0.378863
vt 0.003390 0.993406
vt 0.617920 0.582533
vt 0.754908 0.794544
vt 0.870213 0.790896
vt 0.597337 0.782677
vt 0.986430 0.796391
vt 0.478548 0.782677
vt 0.122179 0.782677
vt 0.122179 0.782677
vt 0.478548 0.782678
vt 0.631233 0.808921
vt 0.003390 0.782677
vt 0.865705 0.898245
vt 0.597337 0.663888
vt 0.655445 0.940218
vt 0.003390 0.663888
vt 0.976412 0.914999
vt 0.632572 0.811543
vt 0.003390 0.782677
vt 0.988564 0.800222
vt 0.597337 0.782678
vt 0.003390 0.663888
vt 0.654477 0.936897
vt 0.597337 0.663888
vt 0.978391 0.919110
vt 0.765146 0.903863
vt 0.751664 0.713518
vt 0.003390 0.866674
vt 0.626783 0.721125
vt 0.122179 0.866674
vt 0.240969 0.866674
vt 0.359758 0.866674
vt 0.478548 0.866674
vt 0.992045 0.714893
vt 0.597337 0.866674
vt 0.872426 0.711564
vt 0.749712 0.710201
vt 0.870332 0.707945
vt 0.597337 0.866674
vt 0.989880 0.711174
vt 0.478548 0.866674
vt 0.359758 0.866674
vt 0.240969 0.866674
vt 0.240969 0.866674
vt 0.359758 0.866674
vt 0.122179 0.866674
vt 0.623823 0.718540
vt 0.003390 0.866674
vt 0.762402 0.965422
vt 0.878025 0.951323
vt 0.761070 0.961625
vt 0.879720 0.955361
s 0
f 1/1/1 2/3/1 3/5/1 4/8/1 5/10/1 6/12/1 7/14/1 8/16/1
f 12/22/2 9/19/2 10/20/2 11/21/2
f 40/74/2 12/22/2 11/21/2 33/65/2
f 41/75/3 13/24/3 14/25/3 42/76/3
f 42/76/4 14/25/4 15/27/4 43/78/4
f 43/77/5 15/28/5 16/30/5 44/79/5
f 44/79/6 16/30/6 17/32/6 45/80/6
f 45/80/1 17/32/1 18/34/1 46/82/1
f 46/82/7 18/34/7 19/37/7 47/84/7
f 14/26/8 13/23/8 20/38/8 19/36/8 18/35/8 17/33/8 16/31/8 15/29/8
f 47/84/9 19/37/9 20/39/9 48/86/9
f 48/85/10 20/40/10 13/24/10 41/75/10
f 31/61/10 26/49/10 21/41/10 32/64/10
f 25/47/9 26/50/9 31/60/9
f 28/52/5 23/43/5 24/45/5
f 27/51/4 22/42/4 23/44/4 28/55/4
f 32/64/3 21/41/3 22/42/3 27/51/3
f 31/61/11 32/64/11 50/89/11
f 49/88/12 50/89/12 32/64/12 27/51/12
f 28/53/13 10/20/13 49/87/13
f 8/17/14 39/72/14 40/74/14 1/2/14
f 7/15/9 38/71/9 39/73/9 8/18/9
f 6/13/15 37/70/15 38/71/15 7/15/15
f 5/11/8 36/69/8 37/70/8 6/13/8
f 4/9/16 35/68/16 36/69/16 5/11/16
f 3/6/5 34/66/5 35/68/5 4/9/5
f 2/4/17 33/65/17 34/67/17 3/7/17
f 1/2/2 40/74/2 33/65/2 2/4/2
f 26/49/10 48/85/10 41/75/10 21/41/10
f 25/47/9 47/84/9 48/86/9 26/50/9
f 46/82/7 47/84/7 25/47/7
f 24/45/6 44/79/6 45/80/6
f 23/43/5 43/77/5 44/79/5 24/45/5
f 22/42/4 42/76/4 43/78/4 23/44/4
f 21/41/3 41/75/3 42/76/3 22/42/3
f 12/22/14 40/74/14 39/72/14 30/58/14
f 9/19/14 12/22/14 30/58/14 31/63/14
f 30/59/9 39/73/9 38/71/9 25/48/9
f 25/48/15 38/71/15 46/83/15
f 35/68/16 24/46/16 45/81/16
f 34/66/5 29/57/5 24/46/5 35/68/5
f 34/67/17 33/65/17 11/21/17 29/56/17
f 11/21/17 10/20/17 28/53/17 29/56/17
f 29/57/5 28/54/5 24/46/5
f 30/59/9 25/48/9 31/62/9
f 10/20/12 9/19/12 50/90/12 49/87/12
f 27/51/13 28/55/13 49/88/13
f 9/19/11 31/63/11 50/90/11
