# Blender 4.2.2 LTS
# www.blender.org
mtllib pcity_nodes_shelf_1_right.mtl
o Shelf_Right
v 0.500000 0.400000 0.400000
v 0.500000 -0.400000 0.400000
v 0.500000 0.400000 -0.500000
v 0.500000 -0.400000 -0.500000
v 0.500000 0.500000 0.500000
v 0.500000 -0.500000 0.500000
v 0.500000 0.500000 -0.500000
v 0.500000 -0.500000 -0.500000
v -0.400000 -0.400000 0.400000
v -0.400000 0.400000 0.400000
v -0.500000 -0.500000 -0.500000
v -0.500000 0.500000 -0.500000
v -0.400000 0.400000 -0.500000
v -0.400000 -0.400000 -0.500000
v -0.500000 0.500000 0.500000
v -0.500000 -0.500000 0.500000
vn -0.0000 -1.0000 -0.0000
vn -0.0000 -0.0000 -1.0000
vn -0.0000 1.0000 -0.0000
vn 1.0000 -0.0000 -0.0000
vn -0.0000 -0.0000 1.0000
vn -1.0000 -0.0000 -0.0000
vt 0.588700 0.598300
vt 0.599548 0.598300
vt 0.599548 0.606565
vt 0.588700 0.606565
vt 0.588686 0.598286
vt 0.588686 0.607469
vt 0.576634 0.607469
vt 0.576634 0.598286
vt 0.601972 0.580839
vt 0.601972 0.589103
vt 0.600767 0.589103
vt 0.600767 0.579921
vt 0.588700 0.613911
vt 0.599548 0.613911
vt 0.599561 0.613911
vt 0.599561 0.605646
vt 0.610409 0.605646
vt 0.610409 0.613911
vt 0.599561 0.598300
vt 0.610409 0.598300
vt 0.611614 0.589103
vt 0.611614 0.580839
vt 0.612819 0.579921
vt 0.612819 0.589103
vt 0.588686 0.579921
vt 0.588686 0.589103
vt 0.576634 0.589103
vt 0.576634 0.579921
vt 0.588700 0.589103
vt 0.600753 0.589103
vt 0.600753 0.598286
vt 0.588700 0.598286
vt 0.599548 0.579921
vt 0.600753 0.579921
vt 0.599548 0.588185
vt 0.589906 0.588185
vt 0.588700 0.579921
vt 0.589906 0.579921
s 0
usemtl Wood
f 13/1/1 3/2/1 1/3/1 10/4/1
f 11/5/1 8/6/1 6/7/1 16/8/1
f 14/9/2 4/10/2 8/11/2 11/12/2
f 9/13/2 10/4/2 1/3/2 2/14/2
f 4/15/3 14/16/3 9/17/3 2/18/3
f 14/16/4 13/19/4 10/20/4 9/17/4
f 3/21/2 13/22/2 12/23/2 7/24/2
f 13/22/2 14/9/2 11/12/2 12/23/2
f 7/25/3 12/26/3 15/27/3 5/28/3
f 6/29/5 5/30/5 15/31/5 16/32/5
f 16/8/6 15/27/6 12/26/6 11/5/6
f 3/33/4 7/34/4 5/30/4 1/35/4
f 2/36/4 6/29/4 8/37/4 4/38/4
f 1/35/4 5/30/4 6/29/4 2/36/4
