# Blender 3.6.10
# www.blender.org
mtllib pcity_nodes_curb_small.mtl
o Cube
v 0.500000 -0.312500 -0.281250
v 0.500000 -0.500000 -0.281250
v 0.500000 -0.312500 -0.500000
v 0.500000 -0.500000 -0.500000
v 0.281250 -0.312500 -0.500000
v 0.281250 -0.500000 -0.281250
v 0.281250 -0.500000 -0.500000
v 0.281250 -0.312500 -0.281250
vn -0.0000 -0.0000 -1.0000
vn 1.0000 -0.0000 -0.0000
vn -0.0000 1.0000 -0.0000
vn -0.0000 -1.0000 -0.0000
vn -0.0000 -0.0000 1.0000
vn -1.0000 -0.0000 -0.0000
vt 0.437500 1.000000
vt 0.218750 1.000000
vt 0.218750 0.812500
vt 0.437500 0.812500
vt 0.656250 1.000000
vt 0.656250 0.812500
vt 0.875000 0.812500
vt 0.875000 1.000000
vt 0.000000 0.593750
vt 0.218750 0.593750
vt 0.000000 0.812500
vt 0.437500 0.593750
vt 0.000000 1.000000
s 0
usemtl Material
f 7/1/1 5/2/1 3/3/1 4/4/1
f 4/5/2 3/6/2 1/7/2 2/8/2
f 1/9/3 3/10/3 5/3/3 8/11/3
f 4/10/4 2/12/4 6/4/4 7/3/4
f 2/4/5 1/6/5 8/5/5 6/1/5
f 7/11/6 6/3/6 8/2/6 5/13/6
