# Blender 4.2.2 LTS
# www.blender.org
mtllib pcity_nodes_shelf_1_middle.mtl
o Shelf_Middle
v 0.500000 0.400000 0.400000
v -0.500000 0.400000 0.400000
v -0.500000 -0.400000 0.400000
v 0.500000 -0.400000 0.400000
v 0.500000 0.400000 -0.500000
v -0.500000 0.400000 -0.500000
v -0.500000 -0.400000 -0.500000
v 0.500000 -0.400000 -0.500000
v -0.500000 0.500000 0.500000
v 0.500000 0.500000 0.500000
v 0.500000 -0.500000 0.500000
v -0.500000 -0.500000 0.500000
v 0.500000 0.500000 -0.500000
v -0.500000 0.500000 -0.500000
v -0.500000 -0.500000 -0.500000
v 0.500000 -0.500000 -0.500000
vn -0.0000 -1.0000 -0.0000
vn -0.0000 -0.0000 1.0000
vn -0.0000 1.0000 -0.0000
vn -0.0000 -0.0000 -1.0000
vn 1.0000 -0.0000 -0.0000
vn -1.0000 -0.0000 -0.0000
vt 0.587411 0.582925
vt 0.598671 0.582925
vt 0.598671 0.590647
vt 0.587411 0.590647
vt 0.587399 0.591505
vt 0.587399 0.600084
vt 0.576138 0.600084
vt 0.576138 0.591505
vt 0.576138 0.582925
vt 0.587399 0.582925
vt 0.587399 0.608664
vt 0.576138 0.608664
vt 0.600947 0.591516
vt 0.600947 0.600096
vt 0.599821 0.600096
vt 0.599821 0.591516
vt 0.599809 0.591516
vt 0.599809 0.600096
vt 0.598683 0.600096
vt 0.598683 0.591516
vt 0.587411 0.597510
vt 0.598671 0.597510
vt 0.598671 0.605232
vt 0.587411 0.605232
vt 0.598671 0.612965
vt 0.598671 0.613823
vt 0.587411 0.613823
vt 0.588537 0.612965
vt 0.609944 0.583783
vt 0.599809 0.583783
vt 0.598683 0.582925
vt 0.609944 0.582925
vt 0.598683 0.591505
vt 0.599809 0.590647
vt 0.609944 0.590647
vt 0.609944 0.591505
vt 0.588537 0.606101
vt 0.587411 0.605244
vt 0.598671 0.605244
vt 0.598671 0.606101
s 0
usemtl Wood
f 6/1/1 5/2/1 1/3/1 2/4/1
f 11/5/2 10/6/2 9/7/2 12/8/2
f 15/9/1 16/10/1 11/5/1 12/8/1
f 13/11/3 14/12/3 9/7/3 10/6/3
f 7/13/4 8/14/4 16/15/4 15/16/4
f 5/17/4 6/18/4 14/19/4 13/20/4
f 3/21/4 2/4/4 1/3/4 4/22/4
f 8/23/3 7/24/3 3/21/3 4/22/3
f 5/25/5 13/26/5 10/27/5 1/28/5
f 6/29/6 2/30/6 9/31/6 14/32/6
f 12/33/6 3/34/6 7/35/6 15/36/6
f 9/31/6 2/30/6 3/34/6 12/33/6
f 4/37/5 11/38/5 16/39/5 8/40/5
f 1/28/5 10/27/5 11/38/5 4/37/5
