# Blender 4.2.2 LTS
# www.blender.org
mtllib pcity_nodes_table_corner.mtl
o Corner
v -0.700000 1.200000 0.500000
v -0.700000 1.200000 -0.700000
v 0.500000 1.200000 0.500000
v 0.500000 1.200000 -0.700000
v -0.700000 1.050000 -0.700000
v -0.700000 1.050000 0.500000
v 0.500000 1.050000 -0.700000
v 0.500000 1.050000 0.500000
v -0.500000 1.050000 -0.600000
v -0.600000 1.200000 0.500000
v 0.500000 1.050000 -0.600000
v -0.600000 1.200000 -0.700000
v -0.600000 1.050000 -0.700000
v 0.500000 1.200000 -0.600000
v 0.500000 1.050000 -0.500000
v -0.700000 1.200000 -0.500000
v -0.600000 1.050000 0.500000
v -0.700000 1.200000 -0.600000
v -0.500000 1.050000 -0.700000
v -0.600000 1.200000 -0.600000
v -0.600000 1.200000 -0.500000
v -0.500000 1.200000 -0.600000
v -0.500000 1.050000 0.500000
v -0.600000 1.050000 -0.600000
v -0.700000 1.050000 -0.600000
v -0.500000 1.200000 0.500000
v -0.500000 1.200000 -0.700000
v -0.500000 1.200000 -0.500000
v -0.500000 1.050000 -0.500000
v -0.700000 1.050000 -0.500000
v 0.500000 1.200000 -0.500000
v 0.500000 0.900000 -0.600000
v 0.500000 0.900000 -0.500000
v -0.600000 0.900000 0.500000
v -0.500000 0.900000 0.500000
v -0.600000 0.900000 -0.500000
v -0.600000 0.900000 -0.600000
v -0.500000 0.900000 -0.500000
v -0.600000 1.050000 -0.500000
v -0.500000 0.900000 -0.600000
vn 1.0000 -0.0000 -0.0000
vn -0.0000 1.0000 -0.0000
vn -0.0000 -0.0000 1.0000
vn -0.0000 -0.0000 -1.0000
vn -1.0000 -0.0000 -0.0000
vn -0.0000 -1.0000 -0.0000
vt 0.462572 0.492511
vt 0.462572 0.495837
vt 0.458413 0.495837
vt 0.458413 0.492511
vt 0.464420 0.491679
vt 0.464651 0.491679
vt 0.464651 0.492095
vt 0.464420 0.492095
vt 0.458413 0.497916
vt 0.462572 0.497916
vt 0.462572 0.499995
vt 0.458413 0.499995
vt 0.458413 0.489831
vt 0.462572 0.489831
vt 0.462572 0.491679
vt 0.458413 0.491679
vt 0.462572 0.487105
vt 0.462572 0.487521
vt 0.458413 0.487521
vt 0.458413 0.487105
vt 0.456334 0.492511
vt 0.456334 0.492095
vt 0.458413 0.497685
vt 0.464651 0.492511
vt 0.466730 0.492511
vt 0.466730 0.495837
vt 0.464651 0.495837
vt 0.456565 0.492095
vt 0.456334 0.491679
vt 0.456565 0.491679
vt 0.462572 0.492095
vt 0.466730 0.491679
vt 0.466730 0.492095
vt 0.464420 0.492511
vt 0.464420 0.495837
vt 0.454255 0.492095
vt 0.454255 0.491679
vt 0.462572 0.497685
vt 0.456334 0.495837
vt 0.454255 0.495837
vt 0.454255 0.492511
vt 0.462572 0.489600
vt 0.458413 0.489600
vt 0.458413 0.492095
vt 0.462572 0.486689
vt 0.458413 0.486689
vt 0.462572 0.483362
vt 0.458413 0.483362
vt 0.456565 0.495837
vt 0.456565 0.492511
s 0
g Corner_Wood
usemtl Wood
f 31/1/1 3/2/1 8/3/1 15/4/1
f 27/5/2 12/6/2 20/7/2 22/8/2
f 17/9/3 10/10/3 1/11/3 6/12/3
f 19/13/4 27/14/4 4/15/4 7/16/4
f 18/17/5 2/18/5 5/19/5 25/20/5
f 39/21/5 24/22/5 37/22/5 36/21/5
f 23/23/3 17/9/3 34/9/3 35/23/3
f 21/24/2 16/25/2 1/26/2 10/27/2
f 9/28/6 24/22/6 13/29/6 19/30/6
f 4/15/2 27/5/2 22/8/2 14/31/2
f 12/6/2 2/32/2 18/33/2 20/7/2
f 14/31/2 22/8/2 28/34/2 31/1/2
f 28/34/2 21/24/2 10/27/2 26/35/2
f 24/22/6 25/36/6 5/37/6 13/29/6
f 23/23/3 26/38/3 10/10/3 17/9/3
f 17/39/6 6/40/6 30/41/6 39/21/6
f 31/1/2 28/34/2 26/35/2 3/2/2
f 5/19/4 2/18/4 12/42/4 13/43/4
f 22/8/2 20/7/2 21/24/2 28/34/2
f 13/43/4 12/42/4 27/14/4 19/13/4
f 4/15/1 14/31/1 11/44/1 7/16/1
f 16/45/5 18/17/5 25/20/5 30/46/5
f 39/21/6 30/41/6 25/36/6 24/22/6
f 11/44/6 9/28/6 19/30/6 7/16/6
f 1/47/5 16/45/5 30/46/5 6/48/5
f 20/7/2 18/33/2 16/25/2 21/24/2
f 8/3/3 3/2/3 26/38/3 23/23/3
f 9/28/4 11/44/4 32/44/4 40/28/4
f 8/3/6 23/49/6 29/50/6 15/4/6
f 14/31/1 31/1/1 15/4/1 11/44/1
f 33/4/6 38/50/6 40/28/6 32/44/6
f 35/49/6 34/39/6 36/21/6 38/50/6
f 29/50/1 23/49/1 35/49/1 38/50/1
f 15/4/3 29/50/3 38/50/3 33/4/3
f 17/39/5 39/21/5 36/21/5 34/39/5
f 11/44/1 15/4/1 33/4/1 32/44/1
f 24/22/4 9/28/4 40/28/4 37/22/4
f 38/50/6 36/21/6 37/22/6 40/28/6
o Leg
v -0.452500 1.100000 -0.647500
v -0.647500 1.100000 -0.452500
v -0.647500 1.100000 -0.647500
v -0.452500 1.100000 -0.452500
v -0.647500 -0.500000 -0.452500
v -0.647500 -0.500000 -0.647500
v -0.452500 -0.500000 -0.647500
v -0.452500 -0.500000 -0.452500
vn -1.0000 -0.0000 -0.0000
vn -0.0000 -1.0000 -0.0000
vn 1.0000 -0.0000 -0.0000
vn -0.0000 -0.0000 -1.0000
vn -0.0000 -0.0000 1.0000
vn -0.0000 1.0000 -0.0000
vt 0.464170 0.500421
vt 0.464170 0.500005
vt 0.464401 0.500421
vt 0.464401 0.500005
s 0
g Leg_Wood
usemtl Wood
f 42/51/7 43/52/7 46/52/7 45/51/7
f 48/53/8 45/51/8 46/52/8 47/54/8
f 41/54/9 44/53/9 48/53/9 47/54/9
f 43/52/10 41/54/10 47/54/10 46/52/10
f 44/53/11 42/51/11 45/51/11 48/53/11
f 43/52/12 42/51/12 44/53/12 41/54/12
