# Blender 3.3.5
# www.blender.org
mtllib pcity_nodes_plate_lamp.mtl
o Sphere
v 0.000000 0.841356 -0.897420
v 0.000000 0.504840 -0.898425
v 0.000000 -0.207441 -0.542972
v 0.701631 0.841356 -0.559532
v 0.702416 0.504840 -0.560158
v 0.614502 0.123856 -0.490049
v 0.424512 -0.207441 -0.338537
v 0.262377 -0.461962 -0.209239
v 0.874920 0.841356 0.199695
v 0.875899 0.504840 0.199918
v 0.766272 0.123856 0.174897
v 0.529358 -0.207441 0.120823
v 0.327179 -0.461962 0.074676
v 0.389376 0.841356 0.808547
v 0.389812 0.504840 0.809453
v 0.341023 0.123856 0.708142
v 0.235981 -0.207854 0.490019
v 0.130040 -0.446237 0.271668
v -0.389376 0.841356 0.808547
v -0.389812 0.504840 0.809453
v -0.341023 0.123856 0.708142
v -0.235981 -0.207854 0.490019
v -0.130040 -0.446237 0.271668
v -0.874920 0.841356 0.199695
v -0.875899 0.504840 0.199918
v -0.766272 0.123856 0.174896
v -0.529358 -0.207441 0.120823
v -0.327179 -0.461962 0.074676
v -0.701631 0.841356 -0.559532
v -0.702416 0.504840 -0.560159
v -0.614502 0.123856 -0.490049
v -0.424512 -0.207441 -0.338537
v -0.262377 -0.461962 -0.209239
v 0.000000 0.123856 -0.785978
v 0.000000 -0.461962 -0.335593
v -0.000000 -0.551884 0.000000
v -0.000000 0.119301 0.000000
v -0.000000 0.119301 0.000000
v -0.000000 0.119301 0.000000
v -0.000000 0.119301 0.000000
v -0.000000 0.119301 0.000000
v -0.000000 0.119301 0.000000
v -0.000000 0.119301 0.000000
v -0.000000 0.119301 0.000000
v -0.000000 0.119301 0.000000
v -0.000000 0.119301 0.000000
v -0.000000 0.119301 0.000000
v -0.000000 0.119301 0.000000
v -0.000000 0.119301 0.000000
v -0.000000 0.119301 0.000000
v -0.000000 0.119301 0.000000
v -0.000000 0.119301 0.000000
v -0.055305 -0.562166 -0.133518
v -0.069535 -0.479617 -0.167871
v 0.055305 -0.562166 -0.133518
v 0.069535 -0.479617 -0.167871
v 0.133518 -0.562166 -0.055305
v 0.167871 -0.479617 -0.069535
v 0.133518 -0.562166 0.055305
v 0.167871 -0.479617 0.069535
v 0.055305 -0.562166 0.133518
v 0.069535 -0.479617 0.167871
v -0.055305 -0.562166 0.133518
v -0.069535 -0.479617 0.167871
v -0.133518 -0.562166 0.055305
v -0.167871 -0.479617 0.069535
v -0.133518 -0.562166 -0.055305
v -0.167871 -0.479617 -0.069535
v 0.069535 0.136053 -0.167871
v -0.069535 0.136053 -0.167871
v 0.167871 0.136053 -0.069535
v 0.167871 0.136053 0.069535
v 0.069535 0.136053 0.167871
v -0.069535 0.136053 0.167871
v -0.167871 0.136053 0.069535
v -0.167871 0.136053 -0.069535
v 0.147663 1.258206 -0.117758
v -0.000000 1.258206 -0.188868
v 0.184133 1.258206 0.042027
v 0.081947 1.258206 0.170165
v -0.081947 1.258206 0.170165
v -0.184133 1.258206 0.042027
v -0.147663 1.258206 -0.117758
v 0.913350 0.841356 -0.728372
v 0.000000 0.841356 -1.168219
v 1.138929 0.841356 0.259953
v 0.506871 0.841356 1.052529
v -0.506871 0.841356 1.052529
v -1.138929 0.841356 0.259953
v -0.913350 0.841356 -0.728373
v 0.913350 0.960430 -0.728372
v 0.000000 0.960430 -1.168219
v 1.138929 0.960430 0.259953
v 0.506871 0.960430 1.052529
v -0.506871 0.960430 1.052529
v -1.138929 0.960430 0.259953
v -0.913350 0.960430 -0.728373
v 1.118542 0.733346 -0.892007
v 0.000000 0.733346 -1.430669
v 1.394799 0.733346 0.318354
v 0.620744 0.733346 1.288988
v -0.620744 0.733346 1.288988
v -1.394799 0.733346 0.318354
v -1.118542 0.733346 -0.892007
v 1.118542 0.773520 -0.892007
v 0.000000 0.773520 -1.430669
v 1.394799 0.773520 0.318354
v 0.620744 0.773520 1.288988
v -0.620744 0.773520 1.288988
v -1.394799 0.773520 0.318354
v -1.118542 0.773520 -0.892007
v 0.453179 1.073577 -0.361398
v 0.000000 1.073577 -0.579637
v 0.565104 1.073577 0.128981
v 0.251495 1.073577 0.522235
v -0.251495 1.073577 0.522235
v -0.565104 1.073577 0.128981
v -0.453179 1.073577 -0.361398
vn 0.3498 -0.5918 -0.7263
vn 0.4193 -0.2570 -0.8707
vn 0.1237 -0.9585 -0.2568
vn 0.3620 -0.5513 -0.7517
vn 0.4339 0.0027 -0.9010
vn 0.2779 -0.9585 -0.0634
vn 0.8134 -0.5513 -0.1856
vn 0.9749 0.0027 -0.2225
vn 0.7859 -0.5918 -0.1794
vn 0.9422 -0.2570 -0.2150
vn 0.1968 -0.9419 0.2721
vn 0.6533 -0.5504 0.5199
vn 0.7818 0.0027 0.6235
vn 0.5748 -0.6358 0.5152
vn 0.7556 -0.2570 0.6025
vn -0.0000 -0.9320 0.3624
vn -0.0000 -0.5494 0.8355
vn -0.0000 0.0027 1.0000
vn -0.0000 -0.6754 0.7374
vn -0.0000 -0.2570 0.9664
vn -0.1968 -0.9419 0.2721
vn -0.6533 -0.5504 0.5199
vn -0.7818 0.0027 0.6235
vn -0.5748 -0.6358 0.5152
vn -0.7556 -0.2570 0.6025
vn 0.1631 0.9780 0.1301
vn -0.8134 -0.5513 -0.1856
vn -0.9749 0.0027 -0.2225
vn -0.7859 -0.5918 -0.1794
vn -0.9422 -0.2570 -0.2150
vn -0.2779 -0.9585 -0.0634
vn -0.4339 0.0027 -0.9010
vn -0.3498 -0.5918 -0.7263
vn -0.4193 -0.2570 -0.8707
vn -0.1237 -0.9585 -0.2568
vn -0.3620 -0.5513 -0.7517
vn -0.0000 1.0000 -0.0000
vn -0.0000 -0.3842 0.9232
vn 0.6528 -0.3842 -0.6528
vn 0.6528 -0.3842 0.6528
vn -0.0000 -0.3842 -0.9232
vn 0.9232 -0.3842 -0.0000
vn -0.6528 -0.3842 0.6528
vn -0.0000 -1.0000 -0.0000
vn -0.9232 -0.3842 -0.0000
vn -0.6528 -0.3842 -0.6528
vn 0.7071 -0.0000 -0.7071
vn 0.7071 -0.0000 0.7071
vn -1.0000 -0.0000 -0.0000
vn -0.0000 -0.0000 1.0000
vn -0.7071 -0.0000 -0.7071
vn 1.0000 -0.0000 -0.0000
vn -0.7071 -0.0000 0.7071
vn -0.0000 -0.0000 -1.0000
vn 0.2034 0.9780 -0.0464
vn 0.0905 0.9780 -0.1880
vn -0.0905 0.9780 -0.1880
vn -0.0000 0.7845 0.6201
vn -0.3248 -0.9096 -0.2591
vn 0.4848 0.7845 0.3866
vn -0.4051 -0.9096 0.0925
vn 0.6046 0.7845 -0.1380
vn -0.1803 -0.9096 0.3743
vn 0.2691 0.7845 -0.5587
vn -0.0000 0.9780 0.2087
vn -0.1631 0.9780 0.1301
vn -0.2034 0.9780 -0.0464
vn 0.7818 -0.0000 0.6235
vn 0.9749 -0.0000 -0.2225
vn -0.7818 -0.0000 0.6235
vn -0.4339 -0.0000 -0.9010
vn -0.9749 -0.0000 -0.2225
vn 0.4339 -0.0000 -0.9010
vn -0.0000 -0.9096 -0.4155
vn -0.4848 0.7845 0.3866
vn 0.3248 -0.9096 -0.2591
vn -0.6046 0.7845 -0.1380
vn 0.4051 -0.9096 0.0925
vn -0.2691 0.7845 -0.5587
vn 0.1803 -0.9096 0.3743
vn 0.2015 0.8856 -0.4184
vn 0.4528 0.8856 -0.1033
vn 0.3631 0.8856 0.2896
vn -0.0000 0.8856 0.4644
vn -0.3631 0.8856 0.2896
vn -0.4528 0.8856 -0.1033
vn -0.2015 0.8856 -0.4184
vt 0.382349 0.968101
vt 0.392065 0.969106
vt 0.703715 0.172434
vt 0.374276 0.886087
vt 0.396824 0.891846
vt 0.301845 0.707509
vt 0.458664 0.709448
vt 0.196305 0.983578
vt 0.529843 0.212126
vt 0.196943 0.907377
vt 0.197964 0.822974
vt 0.197406 0.735658
vt 0.197887 0.664284
vt 0.018001 0.966416
vt 0.499900 0.150825
vt 0.452467 0.372821
vt 0.025317 0.889356
vt 0.433229 0.095877
vt 0.048782 0.797997
vt 0.344307 0.048663
vt 0.093166 0.709108
vt 0.243702 0.021519
vt 0.134744 0.642733
vt 0.160462 0.014458
vt 0.372393 0.299343
vt 0.529864 0.533491
vt 0.319357 0.240071
vt 0.261298 0.178305
vt 0.197405 0.122598
vt 0.139261 0.077173
vt 0.218001 0.403291
vt 0.703716 0.573154
vt 0.183968 0.335268
vt 0.149409 0.259454
vt 0.117139 0.180386
vt 0.092512 0.110443
vt 0.046234 0.466574
vt 0.756269 0.958716
vt 0.843149 0.461962
vt 0.018791 0.392385
vt 0.745483 0.877015
vt 0.000478 0.296578
vt 0.715891 0.785292
vt 0.006187 0.191917
vt 0.667176 0.700936
vt 0.026237 0.110382
vt 0.622170 0.636430
vt 0.570841 0.980350
vt 0.843149 0.283615
vt 0.568953 0.904170
vt 0.567177 0.819780
vt 0.563726 0.732530
vt 0.561842 0.661179
vt 0.347739 0.793433
vt 0.417249 0.799759
vt 0.259001 0.641547
vt 0.498020 0.641731
vt 0.196798 0.585544
vt 0.074982 0.036592
vt 0.558146 0.582519
vt 0.915053 0.280435
vt 0.915053 0.280435
vt 0.915053 0.280435
vt 0.915053 0.280435
vt 0.915053 0.280435
vt 0.915053 0.280435
vt 0.915053 0.280435
vt 0.915053 0.280435
vt 0.915053 0.280435
vt 0.915053 0.280435
vt 0.915053 0.280435
vt 0.915053 0.280435
vt 0.915053 0.280435
vt 0.915053 0.280435
vt 0.915053 0.280435
vt 0.915053 0.280435
vt 0.898679 0.078249
vt 0.894461 0.102720
vt 0.931468 0.078249
vt 0.935686 0.102720
vt 0.954653 0.078249
vt 0.964837 0.102720
vt 0.954653 0.078249
vt 0.964837 0.102720
vt 0.931468 0.078249
vt 0.935686 0.102720
vt 0.898679 0.078249
vt 0.894461 0.102720
vt 0.875494 0.078249
vt 0.865310 0.102720
vt 0.875494 0.078249
vt 0.865310 0.102720
vt 0.935686 0.285228
vt 0.894461 0.285228
vt 0.964837 0.285228
vt 0.964837 0.285228
vt 0.935686 0.285228
vt 0.894461 0.285228
vt 0.865310 0.285228
vt 0.865310 0.285228
vt 0.650243 0.362866
vt 0.660985 0.360562
vt 0.645331 0.372662
vt 0.649930 0.382576
vt 0.660609 0.385084
vt 0.669310 0.378387
vt 0.669490 0.367460
vt 0.560631 0.255694
vt 0.688850 0.223666
vt 0.505725 0.375915
vt 0.565485 0.493784
vt 0.694881 0.520550
vt 0.796510 0.436066
vt 0.793823 0.303933
vt 0.602611 0.305955
vt 0.675731 0.287820
vt 0.571194 0.374434
vt 0.605144 0.441681
vt 0.678863 0.457059
vt 0.736883 0.408992
vt 0.735480 0.333667
vt 0.582316 0.282354
vt 0.681528 0.257239
vt 0.540089 0.375584
vt 0.586650 0.466714
vt 0.686911 0.487126
vt 0.765407 0.421453
vt 0.763006 0.319138
vt 0.584956 0.285502
vt 0.680712 0.261266
vt 0.544197 0.375483
vt 0.589132 0.463440
vt 0.685898 0.483144
vt 0.761662 0.419761
vt 0.759349 0.321011
vt 0.630885 0.339847
vt 0.666871 0.331057
vt 0.615311 0.373459
vt 0.631891 0.406581
vt 0.668083 0.414255
vt 0.696709 0.390723
vt 0.696155 0.353682
s 0
usemtl Material.001
f 35/56/1 3/6/1 7/12/1 8/13/1
f 34/54/2 2/4/2 5/10/2 6/11/2
f 36/58/3 35/56/3 8/13/3
f 3/6/4 34/54/4 6/11/4 7/12/4
f 2/4/5 1/1/5 4/8/5 5/10/5
f 36/58/6 8/13/6 13/23/6
f 7/12/7 6/11/7 11/19/7 12/21/7
f 5/10/8 4/8/8 9/14/8 10/17/8
f 8/13/9 7/12/9 12/21/9 13/23/9
f 6/11/10 5/10/10 10/17/10 11/19/10
f 36/59/11 13/24/11 18/30/11
f 12/22/12 11/20/12 16/28/12 17/29/12
f 10/18/13 9/15/13 14/25/13 15/27/13
f 13/24/14 12/22/14 17/29/14 18/30/14
f 11/20/15 10/18/15 15/27/15 16/28/15
f 36/59/16 18/30/16 23/36/16
f 17/29/17 16/28/17 21/34/17 22/35/17
f 15/27/18 14/25/18 19/31/18 20/33/18
f 18/30/19 17/29/19 22/35/19 23/36/19
f 16/28/20 15/27/20 20/33/20 21/34/20
f 36/59/21 23/36/21 28/46/21
f 22/35/22 21/34/22 26/42/22 27/44/22
f 20/33/23 19/31/23 24/37/23 25/40/23
f 23/36/24 22/35/24 27/44/24 28/46/24
f 21/34/25 20/33/25 25/40/25 26/42/25
f 114/138/26 115/139/26 94/118/26 93/117/26
f 27/45/27 26/43/27 31/51/27 32/52/27
f 25/41/28 24/38/28 29/48/28 30/50/28
f 28/47/29 27/45/29 32/52/29 33/53/29
f 26/43/30 25/41/30 30/50/30 31/51/30
f 36/60/31 28/47/31 33/53/31
f 30/50/32 29/48/32 1/2/32 2/5/32
f 33/53/33 32/52/33 3/7/33 35/57/33
f 31/51/34 30/50/34 2/5/34 34/55/34
f 36/60/35 33/53/35 35/57/35
f 32/52/36 31/51/36 34/55/36 3/7/36
f 37/61/37 38/62/37 40/64/37 39/63/37
f 61/85/38 62/86/38 64/88/38 63/87/38
f 55/79/39 56/80/39 58/82/39 57/81/39
f 39/63/37 40/64/37 42/66/37 41/65/37
f 59/83/40 60/84/40 62/86/40 61/85/40
f 41/65/37 42/66/37 44/68/37 43/67/37
f 43/67/37 44/68/37 46/70/37 45/69/37
f 53/77/41 54/78/41 56/80/41 55/79/41
f 45/69/37 46/70/37 48/72/37 47/71/37
f 57/81/42 58/82/42 60/84/42 59/83/42
f 47/71/37 48/72/37 50/74/37 49/73/37
f 40/64/37 38/62/37 52/76/37 50/74/37 48/72/37 46/70/37 44/68/37 42/66/37
f 49/73/37 50/74/37 52/76/37 51/75/37
f 51/75/37 52/76/37 38/62/37 37/61/37
f 37/61/37 39/63/37 41/65/37 43/67/37 45/69/37 47/71/37 49/73/37 51/75/37
f 63/87/43 64/88/43 66/90/43 65/89/43
f 57/81/44 59/83/44 61/85/44 63/87/44 65/89/44 67/91/44 53/77/44 55/79/44
f 65/89/45 66/90/45 68/92/45 67/91/45
f 67/91/46 68/92/46 54/78/46 53/77/46
f 58/82/47 56/80/47 69/93/47 71/95/47
f 74/98/37 73/97/37 72/96/37 71/95/37 69/93/37 70/94/37 76/100/37 75/99/37
f 62/86/48 60/84/48 72/96/48 73/97/48
f 68/92/49 66/90/49 75/99/49 76/100/49
f 64/88/50 62/86/50 73/97/50 74/98/50
f 54/78/51 68/92/51 76/100/51 70/94/51
f 60/84/52 58/82/52 71/95/52 72/96/52
f 66/90/53 64/88/53 74/98/53 75/99/53
f 56/80/54 54/78/54 70/94/54 69/93/54
f 82/106/37 81/105/37 80/104/37 79/103/37 77/101/37 78/102/37 83/107/37
f 14/26/44 9/16/44 86/110/44 87/111/44
f 112/136/55 114/138/55 93/117/55 91/115/55
f 1/3/44 29/49/44 90/114/44 85/109/44
f 113/137/56 112/136/56 91/115/56 92/116/56
f 4/9/44 1/3/44 85/109/44 84/108/44
f 118/142/57 113/137/57 92/116/57 97/121/57
f 94/118/58 95/119/58 109/133/58 108/132/58
f 87/111/59 86/110/59 100/124/59 101/125/59
f 93/117/60 94/118/60 108/132/60 107/131/60
f 86/110/61 84/108/61 98/122/61 100/124/61
f 91/115/62 93/117/62 107/131/62 105/129/62
f 84/108/63 85/109/63 99/123/63 98/122/63
f 92/116/64 91/115/64 105/129/64 106/130/64
f 115/139/65 116/140/65 95/119/65 94/118/65
f 19/32/44 14/26/44 87/111/44 88/112/44
f 9/16/44 4/9/44 84/108/44 86/110/44
f 116/140/66 117/141/66 96/120/66 95/119/66
f 117/141/67 118/142/67 97/121/67 96/120/67
f 24/39/44 19/32/44 88/112/44 89/113/44
f 29/49/44 24/39/44 89/113/44 90/114/44
f 101/125/68 100/124/68 107/131/68 108/132/68
f 100/124/69 98/122/69 105/129/69 107/131/69
f 102/126/50 101/125/50 108/132/50 109/133/50
f 103/127/70 102/126/70 109/133/70 110/134/70
f 99/123/71 104/128/71 111/135/71 106/130/71
f 104/128/72 103/127/72 110/134/72 111/135/72
f 98/122/73 99/123/73 106/130/73 105/129/73
f 88/112/74 87/111/74 101/125/74 102/126/74
f 95/119/75 96/120/75 110/134/75 109/133/75
f 89/113/76 88/112/76 102/126/76 103/127/76
f 96/120/77 97/121/77 111/135/77 110/134/77
f 90/114/78 89/113/78 103/127/78 104/128/78
f 97/121/79 92/116/79 106/130/79 111/135/79
f 85/109/80 90/114/80 104/128/80 99/123/80
f 78/102/81 77/101/81 112/136/81 113/137/81
f 77/101/82 79/103/82 114/138/82 112/136/82
f 79/103/83 80/104/83 115/139/83 114/138/83
f 80/104/84 81/105/84 116/140/84 115/139/84
f 81/105/85 82/106/85 117/141/85 116/140/85
f 82/106/86 83/107/86 118/142/86 117/141/86
f 83/107/87 78/102/87 113/137/87 118/142/87
