# Blender 4.3.0
# www.blender.org
mtllib pcity_nodes_shelf_1.mtl
o Shelf
v 0.500000 -0.500000 0.500000
v 0.500000 0.500000 0.500000
v 0.400000 -0.400000 -0.500000
v 0.400000 0.400000 -0.500000
v 0.500000 -0.500000 -0.500000
v 0.500000 0.500000 -0.500000
v 0.400000 -0.400000 0.400000
v 0.400000 0.400000 0.400000
v -0.500000 -0.500000 -0.500000
v -0.500000 0.500000 -0.500000
v -0.500000 -0.500000 0.500000
v -0.500000 0.500000 0.500000
v -0.400000 -0.400000 -0.500000
v -0.400000 0.400000 -0.500000
v -0.400000 -0.400000 0.400000
v -0.400000 0.400000 0.400000
vn -0.0000 -1.0000 -0.0000
vn 1.0000 -0.0000 -0.0000
vn -0.0000 -0.0000 -1.0000
vn -1.0000 -0.0000 -0.0000
vn -0.0000 1.0000 -0.0000
vn -0.0000 -0.0000 1.0000
vt 0.588850 0.608138
vt 0.588849 0.601500
vt 0.598651 0.601503
vt 0.598647 0.608138
vt 0.588835 0.586469
vt 0.588802 0.594765
vt 0.577906 0.594768
vt 0.577939 0.586472
vt 0.588780 0.578157
vt 0.577906 0.578193
vt 0.611730 0.604049
vt 0.611730 0.597412
vt 0.612819 0.596583
vt 0.612819 0.604879
vt 0.603019 0.597412
vt 0.601930 0.596583
vt 0.608625 0.585665
vt 0.608716 0.592258
vt 0.600035 0.592348
vt 0.599886 0.585668
vt 0.588853 0.594865
vt 0.598651 0.594865
vt 0.600035 0.578157
vt 0.608716 0.578244
vt 0.603019 0.604049
vt 0.601930 0.604879
vt 0.588835 0.603045
vt 0.577961 0.603081
vt 0.599703 0.594850
vt 0.588849 0.594748
vt 0.588949 0.586503
vt 0.599872 0.586503
vt 0.586617 0.603096
vt 0.586617 0.610562
vt 0.577906 0.610562
vt 0.577906 0.603096
vt 0.599703 0.578157
vt 0.588849 0.578258
s 0
g Shelf_Wood
usemtl Wood
f 14/1/1 4/2/1 8/3/1 16/4/1
f 5/5/2 6/6/2 2/7/2 1/8/2
f 9/9/1 5/5/1 1/8/1 11/10/1
f 13/11/3 3/12/3 5/13/3 9/14/3
f 3/12/3 4/15/3 6/16/3 5/13/3
f 15/17/3 16/18/3 8/19/3 7/20/3
f 4/2/4 3/21/4 7/22/4 8/3/4
f 3/23/5 13/24/5 15/17/5 7/20/5
f 4/15/3 14/25/3 10/26/3 6/16/3
f 6/6/5 10/27/5 12/28/5 2/7/5
f 1/29/6 2/30/6 12/31/6 11/32/6
f 15/33/2 13/34/2 14/35/2 16/36/2
f 9/37/4 11/32/4 12/31/4 10/38/4
f 10/26/3 14/25/3 13/11/3 9/14/3
