# Blender 4.2.2 LTS
# www.blender.org
mtllib pcity_nodes_chair.mtl
o Legs
v 0.434823 0.400000 -0.266326
v 0.434823 0.400000 -0.152358
v 0.314693 0.400000 -0.266326
v 0.314693 0.400000 -0.152358
v 0.349746 -0.500000 -0.318321
v 0.489630 -0.500000 -0.318321
v 0.349746 -0.500000 -0.185613
v 0.489630 -0.500000 -0.185613
v 0.434823 0.400000 0.600004
v 0.434823 0.400000 0.486036
v 0.314693 0.400000 0.600004
v 0.314693 0.400000 0.486036
v 0.489630 -0.500000 0.519291
v 0.349746 -0.500000 0.519291
v 0.489630 -0.500000 0.652000
v 0.349746 -0.500000 0.652000
v 0.434823 1.193029 -0.341527
v 0.434823 1.193029 -0.227559
v 0.434823 1.986058 -0.302760
v 0.434823 1.986058 -0.416728
v 0.434823 1.033130 -0.326364
v 0.434823 1.033130 -0.212396
v 0.434823 1.589544 -0.265159
v 0.434823 1.589544 -0.379127
v 0.434823 1.787801 -0.283959
v 0.434823 1.787801 -0.397928
v 0.434823 0.650456 -0.290076
v 0.434823 0.650456 -0.176108
v 0.314693 1.209746 -0.246852
v 0.314693 1.209746 -0.325404
v 0.314693 1.572827 -0.359834
v 0.314693 1.804518 -0.303253
v 0.314693 1.969341 -0.318883
v 0.314693 1.969341 -0.397434
v 0.314693 0.667172 -0.195401
v 0.314693 1.016413 -0.228519
v 0.314693 1.016413 -0.307070
v 0.314693 1.572827 -0.281282
v 0.314693 1.804518 -0.381804
v 0.314693 0.667172 -0.273953
v 0.314693 1.193029 -0.227559
v 0.314693 1.193029 -0.341527
v 0.314693 1.589544 -0.379127
v 0.314693 1.787801 -0.283959
v 0.314693 1.986058 -0.302760
v 0.314693 1.986058 -0.416728
v 0.314693 0.650456 -0.176108
v 0.314693 1.033130 -0.212396
v 0.314693 1.033130 -0.326364
v 0.314693 1.589544 -0.265159
v 0.314693 1.787801 -0.397928
v 0.314693 0.650456 -0.290076
v 0.000000 1.209746 -0.246852
v 0.000000 1.209746 -0.325404
v 0.000000 1.572827 -0.359834
v 0.000000 1.804518 -0.303253
v 0.000000 1.969341 -0.318883
v 0.000000 1.969341 -0.397434
v 0.000000 0.667172 -0.195401
v 0.000000 1.016413 -0.228519
v 0.000000 1.016413 -0.307070
v 0.000000 1.572827 -0.281282
v 0.000000 1.804518 -0.381804
v 0.000000 0.667172 -0.273953
v -0.434823 0.400000 -0.266326
v -0.434823 0.400000 -0.152358
v -0.314693 0.400000 -0.266326
v -0.314693 0.400000 -0.152358
v -0.349746 -0.500000 -0.318321
v -0.489630 -0.500000 -0.318321
v -0.349746 -0.500000 -0.185613
v -0.489630 -0.500000 -0.185613
v -0.434823 0.400000 0.600004
v -0.434823 0.400000 0.486036
v -0.314693 0.400000 0.600004
v -0.314693 0.400000 0.486036
v -0.489630 -0.500000 0.519291
v -0.349746 -0.500000 0.519291
v -0.489630 -0.500000 0.652000
v -0.349746 -0.500000 0.652000
v -0.434823 1.193029 -0.341527
v -0.434823 1.193029 -0.227559
v -0.434823 1.986058 -0.302760
v -0.434823 1.986058 -0.416728
v -0.434823 1.033130 -0.326364
v -0.434823 1.033130 -0.212396
v -0.434823 1.589544 -0.265159
v -0.434823 1.589544 -0.379127
v -0.434823 1.787801 -0.283959
v -0.434823 1.787801 -0.397928
v -0.434823 0.650456 -0.290076
v -0.434823 0.650456 -0.176108
v -0.314693 1.209746 -0.246852
v -0.314693 1.209746 -0.325404
v -0.314693 1.572827 -0.359834
v -0.314693 1.804518 -0.303253
v -0.314693 1.969341 -0.318883
v -0.314693 1.969341 -0.397434
v -0.314693 0.667172 -0.195401
v -0.314693 1.016413 -0.228519
v -0.314693 1.016413 -0.307070
v -0.314693 1.572827 -0.281282
v -0.314693 1.804518 -0.381804
v -0.314693 0.667172 -0.273953
v -0.314693 1.193029 -0.227559
v -0.314693 1.193029 -0.341527
v -0.314693 1.589544 -0.379127
v -0.314693 1.787801 -0.283959
v -0.314693 1.986058 -0.302760
v -0.314693 1.986058 -0.416728
v -0.314693 0.650456 -0.176108
v -0.314693 1.033130 -0.212396
v -0.314693 1.033130 -0.326364
v -0.314693 1.589544 -0.265159
v -0.314693 1.787801 -0.397928
v -0.314693 0.650456 -0.290076
vn -0.0000 -0.0369 -0.9993
vn -0.0000 0.0577 -0.9983
vn -0.0000 -1.0000 -0.0000
vn -0.0000 0.0577 0.9983
vn -0.0000 -0.0369 0.9993
vn -0.9992 -0.0389 -0.0000
vn 0.9982 0.0608 -0.0000
vn -0.0000 -0.0944 -0.9955
vn -0.0000 0.0944 0.9955
vn -0.0000 1.0000 -0.0000
vn -1.0000 -0.0000 -0.0000
vn 1.0000 -0.0000 -0.0000
vn 0.9992 -0.0389 -0.0000
vn -0.9982 0.0608 -0.0000
vt 0.467426 0.509052
vt 0.469011 0.509157
vt 0.468750 0.517855
vt 0.466904 0.517733
vt 0.471728 0.487222
vt 0.473316 0.487299
vt 0.473316 0.496011
vt 0.471467 0.495921
vt 0.472021 0.506870
vt 0.473874 0.506870
vt 0.473874 0.508282
vt 0.472021 0.508282
vt 0.470599 0.509234
vt 0.472187 0.509157
vt 0.472448 0.517855
vt 0.470599 0.517945
vt 0.474904 0.487222
vt 0.476489 0.487118
vt 0.477011 0.495799
vt 0.475165 0.495921
vt 0.473772 0.509052
vt 0.474294 0.517733
vt 0.470143 0.487118
vt 0.469621 0.495799
vt 0.473902 0.506870
vt 0.475755 0.506870
vt 0.475755 0.508282
vt 0.473902 0.508282
vt 0.473316 0.487299
vt 0.471728 0.487222
vt 0.476489 0.487118
vt 0.474904 0.487222
vt 0.470143 0.487118
vt 0.474904 0.487222
vt 0.473316 0.487299
vt 0.476489 0.487118
vt 0.471728 0.487222
vt 0.471482 0.487206
vt 0.470389 0.487134
vt 0.470143 0.487118
vt 0.470389 0.487134
vt 0.470389 0.487134
vt 0.471482 0.487206
vt 0.471482 0.487206
vt 0.471482 0.487206
vt 0.471482 0.487206
vt 0.471482 0.487206
s 0
g Legs_Wood
usemtl Wood
f 12/1/1 10/2/1 13/3/1 14/4/1
f 3/5/2 1/6/2 6/7/2 5/8/2
f 6/9/3 8/10/3 7/11/3 5/12/3
f 9/13/4 11/14/4 16/15/4 15/16/4
f 2/17/5 4/18/5 7/19/5 8/20/5
f 11/14/6 12/21/6 14/22/6 16/15/6
f 4/23/6 3/5/6 5/8/6 7/24/6
f 15/25/3 16/26/3 14/27/3 13/28/3
f 1/6/7 2/17/7 8/20/7 6/7/7
f 10/2/7 9/13/7 15/16/7 13/3/7
f 26/6/8 51/5/8 46/5/8 20/6/8
f 21/29/8 49/30/8 42/5/8 17/6/8
f 48/31/9 22/32/9 18/17/9 41/18/9
f 20/6/10 46/5/10 45/18/10 19/17/10
f 49/30/11 48/33/11 41/23/11 42/5/11
f 25/17/12 26/6/12 20/6/12 19/17/12
f 44/18/9 25/17/9 19/17/9 45/18/9
f 22/32/12 21/29/12 17/6/12 18/17/12
f 28/34/12 27/35/12 21/29/12 22/32/12
f 47/36/9 28/34/9 22/32/9 48/31/9
f 27/35/8 52/37/8 49/30/8 21/29/8
f 41/18/9 18/17/9 23/17/9 50/18/9
f 18/17/12 17/6/12 24/6/12 23/17/12
f 17/6/8 42/5/8 43/5/8 24/6/8
f 39/38/3 32/39/3 56/39/3 63/38/3
f 50/18/9 23/17/9 25/17/9 44/18/9
f 23/17/12 24/6/12 26/6/12 25/17/12
f 24/6/8 43/5/8 51/5/8 26/6/8
f 43/5/11 50/23/11 44/23/11 51/5/11
f 1/6/8 3/5/8 52/37/8 27/35/8
f 4/18/9 2/17/9 28/34/9 47/36/9
f 3/5/11 4/23/11 47/40/11 52/37/11
f 2/17/12 1/6/12 27/35/12 28/34/12
f 32/39/9 33/41/9 57/41/9 56/39/9
f 36/42/10 37/43/10 61/43/10 60/42/10
f 29/39/11 30/44/11 42/5/11 41/23/11
f 30/44/11 31/45/11 43/5/11 42/5/11
f 33/41/11 32/39/11 44/23/11 45/23/11
f 34/46/11 33/41/11 45/23/11 46/5/11
f 36/42/11 35/39/11 47/40/11 48/33/11
f 37/43/11 36/42/11 48/33/11 49/30/11
f 38/39/11 29/39/11 41/23/11 50/23/11
f 31/45/11 38/39/11 50/23/11 43/5/11
f 39/38/11 34/46/11 46/5/11 51/5/11
f 32/39/11 39/38/11 51/5/11 44/23/11
f 40/47/11 37/43/11 49/30/11 52/37/11
f 35/39/11 40/47/11 52/37/11 47/40/11
f 56/39/11 57/41/11 58/46/11 63/38/11
f 55/45/11 54/44/11 53/39/11 62/39/11
f 59/39/11 60/42/11 61/43/11 64/47/11
f 29/39/9 38/39/9 62/39/9 53/39/9
f 33/41/10 34/46/10 58/46/10 57/41/10
f 37/43/8 40/47/8 64/47/8 61/43/8
f 30/44/3 29/39/3 53/39/3 54/44/3
f 38/39/10 31/45/10 55/45/10 62/39/10
f 35/39/9 36/42/9 60/42/9 59/39/9
f 40/47/3 35/39/3 59/39/3 64/47/3
f 31/45/8 30/44/8 54/44/8 55/45/8
f 34/46/8 39/38/8 63/38/8 58/46/8
f 76/1/1 78/4/1 77/3/1 74/2/1
f 67/5/2 69/8/2 70/7/2 65/6/2
f 70/9/3 69/12/3 71/11/3 72/10/3
f 73/13/4 79/16/4 80/15/4 75/14/4
f 66/17/5 72/20/5 71/19/5 68/18/5
f 75/14/13 80/15/13 78/22/13 76/21/13
f 68/23/13 71/24/13 69/8/13 67/5/13
f 79/25/3 77/28/3 78/27/3 80/26/3
f 65/6/14 70/7/14 72/20/14 66/17/14
f 74/2/14 77/3/14 79/16/14 73/13/14
f 90/6/8 84/6/8 110/5/8 115/5/8
f 85/29/8 81/6/8 106/5/8 113/30/8
f 112/31/9 105/18/9 82/17/9 86/32/9
f 84/6/10 83/17/10 109/18/10 110/5/10
f 113/30/12 106/5/12 105/23/12 112/33/12
f 89/17/11 83/17/11 84/6/11 90/6/11
f 108/18/9 109/18/9 83/17/9 89/17/9
f 86/32/11 82/17/11 81/6/11 85/29/11
f 92/34/11 86/32/11 85/29/11 91/35/11
f 111/36/9 112/31/9 86/32/9 92/34/9
f 91/35/8 85/29/8 113/30/8 116/37/8
f 105/18/9 114/18/9 87/17/9 82/17/9
f 82/17/11 87/17/11 88/6/11 81/6/11
f 81/6/8 88/6/8 107/5/8 106/5/8
f 103/38/3 63/38/3 56/39/3 96/39/3
f 114/18/9 108/18/9 89/17/9 87/17/9
f 87/17/11 89/17/11 90/6/11 88/6/11
f 88/6/8 90/6/8 115/5/8 107/5/8
f 107/5/12 115/5/12 108/23/12 114/23/12
f 65/6/8 91/35/8 116/37/8 67/5/8
f 68/18/9 111/36/9 92/34/9 66/17/9
f 67/5/12 116/37/12 111/40/12 68/23/12
f 66/17/11 92/34/11 91/35/11 65/6/11
f 96/39/9 56/39/9 57/41/9 97/41/9
f 100/42/10 60/42/10 61/43/10 101/43/10
f 93/39/12 105/23/12 106/5/12 94/44/12
f 94/44/12 106/5/12 107/5/12 95/45/12
f 97/41/12 109/23/12 108/23/12 96/39/12
f 98/46/12 110/5/12 109/23/12 97/41/12
f 100/42/12 112/33/12 111/40/12 99/39/12
f 101/43/12 113/30/12 112/33/12 100/42/12
f 102/39/12 114/23/12 105/23/12 93/39/12
f 95/45/12 107/5/12 114/23/12 102/39/12
f 103/38/12 115/5/12 110/5/12 98/46/12
f 96/39/12 108/23/12 115/5/12 103/38/12
f 104/47/12 116/37/12 113/30/12 101/43/12
f 99/39/12 111/40/12 116/37/12 104/47/12
f 93/39/9 53/39/9 62/39/9 102/39/9
f 97/41/10 57/41/10 58/46/10 98/46/10
f 101/43/8 61/43/8 64/47/8 104/47/8
f 94/44/3 54/44/3 53/39/3 93/39/3
f 102/39/10 62/39/10 55/45/10 95/45/10
f 99/39/9 59/39/9 60/42/9 100/42/9
f 104/47/3 64/47/3 59/39/3 99/39/3
f 95/45/8 55/45/8 54/44/8 94/44/8
f 98/46/8 58/46/8 63/38/8 103/38/8
o Seat
v 0.457602 0.485645 -0.312292
v 0.457602 0.398329 -0.313565
v 0.457602 0.455923 0.651166
v 0.457602 0.393800 0.649893
v 0.152534 0.376581 0.649599
v 0.152534 0.438705 0.650872
v 0.152534 0.372353 -0.313859
v 0.152534 0.459669 -0.312586
v 0.152534 0.372763 -0.216778
v 0.152534 0.457634 -0.215505
v 0.457602 0.482760 -0.215210
v 0.457602 0.397889 -0.216483
v 0.305068 0.385341 -0.313712
v 0.305068 0.472657 -0.312439
v 0.305068 0.385190 0.649746
v 0.305068 0.447314 0.651019
v 0.305068 0.385326 -0.216631
v 0.305068 0.470197 -0.215358
v 0.000000 0.459669 -0.312586
v 0.000000 0.372353 -0.313859
v 0.000000 0.438705 0.650872
v 0.000000 0.376581 0.649599
v 0.000000 0.372763 -0.216778
v 0.000000 0.457634 -0.215505
v -0.457602 0.485645 -0.312292
v -0.457602 0.398329 -0.313565
v -0.457602 0.455923 0.651166
v -0.457602 0.393800 0.649893
v -0.152534 0.376581 0.649599
v -0.152534 0.438705 0.650872
v -0.152534 0.372353 -0.313859
v -0.152534 0.459669 -0.312586
v -0.152534 0.372763 -0.216778
v -0.152534 0.457634 -0.215505
v -0.457602 0.482760 -0.215210
v -0.457602 0.397889 -0.216483
v -0.305068 0.385341 -0.313712
v -0.305068 0.472657 -0.312439
v -0.305068 0.385190 0.649746
v -0.305068 0.447314 0.651019
v -0.305068 0.385326 -0.216631
v -0.305068 0.470197 -0.215358
vn 1.0000 -0.0000 -0.0000
vn -0.0000 0.9998 0.0210
vn 0.0002 -0.0205 0.9998
vn -0.0000 0.0146 -0.9999
vn 0.0835 -0.9965 0.0020
vn -0.0003 0.0146 -0.9999
vn 0.0692 -0.9976 0.0021
vn -0.0692 0.9972 0.0286
vn -0.0000 0.9998 0.0218
vn -0.0692 0.9973 0.0241
vn 0.0692 -0.9976 -0.0024
vn 0.0835 -0.9965 -0.0023
vn -0.0835 0.9962 0.0231
vn -0.0000 -1.0000 0.0044
vn -0.0000 -0.0205 0.9998
vn -0.0000 -1.0000 0.0042
vn -1.0000 -0.0000 -0.0000
vn -0.0002 -0.0205 0.9998
vn -0.0835 -0.9965 0.0020
vn 0.0003 0.0146 -0.9999
vn -0.0692 -0.9976 0.0021
vn 0.0692 0.9972 0.0286
vn 0.0692 0.9973 0.0241
vn -0.0692 -0.9976 -0.0024
vn -0.0835 -0.9965 -0.0023
vn 0.0835 0.9962 0.0231
vn 0.0835 0.9961 0.0274
vn -0.0835 0.9961 0.0274
vt 0.490826 0.489969
vt 0.490721 0.498671
vt 0.489935 0.498671
vt 0.489753 0.489973
vt 0.475781 0.500865
vt 0.475781 0.499259
vt 0.477009 0.499259
vt 0.477009 0.500865
vt 0.489826 0.500277
vt 0.490612 0.500277
vt 0.490503 0.501883
vt 0.489717 0.501883
vt 0.474322 0.513127
vt 0.475426 0.513127
vt 0.475426 0.514733
vt 0.474322 0.514733
vt 0.478269 0.497648
vt 0.478267 0.499259
vt 0.477039 0.499259
vt 0.477041 0.497648
vt 0.474486 0.516339
vt 0.475590 0.516339
vt 0.475755 0.517945
vt 0.474650 0.517945
vt 0.489687 0.497651
vt 0.489684 0.499259
vt 0.464362 0.497651
vt 0.464362 0.496043
vt 0.475785 0.496039
vt 0.475783 0.497649
vt 0.464361 0.500865
vt 0.464361 0.499259
vt 0.490837 0.489033
vt 0.489733 0.489038
vt 0.489689 0.496043
vt 0.478272 0.496038
vt 0.477044 0.496037
vt 0.477011 0.497649
vt 0.489684 0.500865
vt 0.478267 0.500865
vt 0.490503 0.503489
vt 0.489717 0.503489
vt 0.477039 0.500865
vt 0.490826 0.517009
vt 0.489753 0.517005
vt 0.489935 0.508307
vt 0.490721 0.508307
vt 0.477009 0.502471
vt 0.475781 0.502471
vt 0.489826 0.506701
vt 0.489717 0.505095
vt 0.490503 0.505095
vt 0.490612 0.506701
vt 0.474322 0.511521
vt 0.475426 0.511521
vt 0.478269 0.504081
vt 0.477041 0.504081
vt 0.477039 0.502470
vt 0.478267 0.502470
vt 0.474486 0.509915
vt 0.474650 0.508310
vt 0.475755 0.508310
vt 0.475590 0.509915
vt 0.489687 0.504078
vt 0.489684 0.502470
vt 0.464362 0.504079
vt 0.475783 0.504082
vt 0.475785 0.505692
vt 0.464362 0.505687
vt 0.464361 0.502471
vt 0.490837 0.517945
vt 0.489733 0.517940
vt 0.489689 0.505686
vt 0.478272 0.505691
vt 0.477044 0.505692
vt 0.477011 0.504082
s 0
g Seat_Wood
usemtl Wood
f 127/48/15 119/49/15 120/50/15 128/51/15
f 140/52/16 126/53/16 124/54/16 135/55/16
f 131/56/17 132/57/17 122/58/17 121/59/17
f 136/60/18 135/61/18 124/62/18 123/63/18
f 133/64/19 125/65/19 123/66/19 129/67/19
f 129/68/20 130/69/20 117/70/20 118/71/20
f 131/72/21 121/73/21 125/65/21 133/64/21
f 132/74/22 119/75/22 127/76/22 134/77/22
f 137/78/23 122/79/23 126/53/23 140/52/23
f 117/80/15 127/48/15 128/51/15 118/81/15
f 122/79/24 132/74/24 134/77/24 126/53/24
f 120/82/25 131/72/25 133/64/25 128/83/25
f 123/63/20 124/62/20 130/69/20 129/68/20
f 128/83/26 133/64/26 129/67/26 118/84/26
f 126/53/27 134/77/27 130/85/27 124/54/27
f 120/50/17 119/49/17 132/57/17 131/56/17
f 121/73/28 138/86/28 139/87/28 125/65/28
f 121/59/29 122/58/29 137/88/29 138/89/29
f 125/65/30 139/87/30 136/90/30 123/66/30
f 151/91/31 152/92/31 144/93/31 143/94/31
f 140/52/16 135/55/16 148/95/16 150/96/16
f 155/97/32 145/98/32 146/99/32 156/100/32
f 136/60/18 147/101/18 148/102/18 135/61/18
f 157/103/33 153/104/33 147/105/33 149/106/33
f 153/107/34 142/108/34 141/109/34 154/110/34
f 155/111/35 157/103/35 149/106/35 145/112/35
f 156/113/36 158/114/36 151/115/36 143/116/36
f 137/78/23 140/52/23 150/96/23 146/117/23
f 141/118/31 142/119/31 152/92/31 151/91/31
f 146/117/37 150/96/37 158/114/37 156/113/37
f 144/120/38 152/121/38 157/103/38 155/111/38
f 147/101/34 153/107/34 154/110/34 148/102/34
f 152/121/39 142/122/39 153/104/39 157/103/39
f 150/96/40 148/95/40 154/123/40 158/114/40
f 144/93/32 155/97/32 156/100/32 143/94/32
f 145/112/28 149/106/28 139/87/28 138/86/28
f 145/98/29 138/89/29 137/88/29 146/99/29
f 149/106/30 147/105/30 136/90/30 139/87/30
f 154/123/41 141/118/41 151/115/41 158/114/41
f 130/85/42 134/77/42 127/76/42 117/80/42
o Bars
v 0.358329 0.148424 -0.182122
v 0.358329 0.066333 -0.182122
v 0.421523 0.148424 -0.182122
v 0.421523 0.066333 -0.182122
v 0.371882 -0.231195 -0.182122
v 0.371882 -0.313286 -0.182122
v 0.437466 -0.231195 -0.182122
v 0.437466 -0.313286 -0.182122
v 0.358329 0.148424 0.519387
v 0.358329 0.066333 0.519387
v 0.421523 0.148424 0.519387
v 0.421523 0.066333 0.519387
v 0.371882 -0.231195 0.519387
v 0.371882 -0.313286 0.519387
v 0.437466 -0.231195 0.519387
v 0.437466 -0.313286 0.519387
v -0.358329 0.148424 -0.182122
v -0.358329 0.066333 -0.182122
v -0.421523 0.148424 -0.182122
v -0.421523 0.066333 -0.182122
v -0.371882 -0.231195 -0.182122
v -0.371882 -0.313286 -0.182122
v -0.437466 -0.231195 -0.182122
v -0.437466 -0.313286 -0.182122
v -0.358329 0.148424 0.519387
v -0.358329 0.066333 0.519387
v -0.421523 0.148424 0.519387
v -0.421523 0.066333 0.519387
v -0.371882 -0.231195 0.519387
v -0.371882 -0.313286 0.519387
v -0.437466 -0.231195 0.519387
v -0.437466 -0.313286 0.519387
v -0.336222 -0.050224 -0.198045
v -0.336222 -0.132315 -0.198045
v -0.336222 -0.050224 -0.258820
v -0.336222 -0.132315 -0.258820
v 0.336222 -0.050224 -0.198045
v 0.336222 -0.132315 -0.198045
v 0.336222 -0.050224 -0.258820
v 0.336222 -0.132315 -0.258820
v -0.336222 0.068375 0.531646
v -0.336222 -0.013716 0.531646
v -0.336222 0.068375 0.592422
v -0.336222 -0.013716 0.592422
v 0.336222 0.068375 0.531646
v 0.336222 -0.013716 0.531646
v 0.336222 0.068375 0.592422
v 0.336222 -0.013716 0.592422
vn -0.0000 1.0000 -0.0000
vn 1.0000 -0.0000 -0.0000
vn -1.0000 -0.0000 -0.0000
vn -0.0000 -1.0000 -0.0000
vn -0.0000 -0.0000 1.0000
vn -0.0000 -0.0000 -1.0000
vt 0.480461 0.483491
vt 0.481231 0.483491
vt 0.481231 0.489561
vt 0.480461 0.489561
vt 0.461136 0.489941
vt 0.462176 0.489941
vt 0.462176 0.496011
vt 0.461136 0.496011
vt 0.479421 0.483491
vt 0.479421 0.489561
vt 0.461406 0.483843
vt 0.461406 0.489913
vt 0.460365 0.489913
vt 0.460365 0.483843
vt 0.459595 0.489913
vt 0.459595 0.483843
vt 0.478650 0.483491
vt 0.478650 0.489561
vt 0.459325 0.489941
vt 0.460365 0.489941
vt 0.460365 0.496011
vt 0.459325 0.496011
vt 0.456805 0.511875
vt 0.456805 0.517945
vt 0.456035 0.517945
vt 0.456035 0.511875
vt 0.458615 0.511875
vt 0.458615 0.517945
vt 0.457845 0.517945
vt 0.457845 0.511875
vt 0.454994 0.517945
vt 0.454994 0.511875
vt 0.482272 0.483491
vt 0.482272 0.489561
vt 0.458555 0.489941
vt 0.458555 0.496011
vt 0.462176 0.483843
vt 0.462176 0.489913
vt 0.458555 0.489913
vt 0.458555 0.483843
vt 0.456805 0.511847
vt 0.456035 0.511847
vt 0.456035 0.505777
vt 0.456805 0.505777
vt 0.457845 0.511847
vt 0.457845 0.505777
vt 0.458615 0.511847
vt 0.458615 0.505777
vt 0.456716 0.496011
vt 0.456716 0.489941
vt 0.457487 0.489941
vt 0.457487 0.496011
vt 0.454906 0.496011
vt 0.454906 0.489941
vt 0.455676 0.489941
vt 0.455676 0.496011
vt 0.458527 0.489941
vt 0.458527 0.496011
vt 0.454994 0.511847
vt 0.454994 0.505777
s 0
g Bars_Wood
usemtl Wood
f 185/124/43 183/125/43 175/126/43 177/127/43
f 187/128/44 188/129/44 180/130/44 179/131/44
f 186/132/45 185/124/45 177/127/45 178/133/45
f 174/134/44 166/135/44 165/136/44 173/137/44
f 173/137/43 165/136/43 163/138/43 171/139/43
f 184/140/46 186/132/46 178/133/46 176/141/46
f 190/142/45 189/143/45 181/144/45 182/145/45
f 169/146/43 161/147/43 159/148/43 167/149/43
f 168/150/46 160/151/46 162/152/46 170/153/46
f 167/149/45 159/148/45 160/154/45 168/155/45
f 170/153/44 162/152/44 161/147/44 169/146/44
f 183/125/44 184/156/44 176/157/44 175/126/44
f 188/158/46 190/142/46 182/145/46 180/159/46
f 172/160/46 164/161/46 166/135/46 174/134/46
f 171/139/45 163/138/45 164/162/45 172/163/45
f 189/143/43 187/128/43 179/131/43 181/144/43
f 205/164/43 203/165/43 199/166/43 201/167/43
f 206/168/47 205/164/47 201/167/47 202/169/47
f 204/170/46 206/168/46 202/169/46 200/171/46
f 197/172/43 193/173/43 191/174/43 195/175/43
f 196/176/46 192/177/46 194/178/46 198/179/46
f 195/175/47 191/174/47 192/180/47 196/181/47
f 198/179/48 194/178/48 193/173/48 197/172/48
f 203/165/48 204/182/48 200/183/48 199/166/48
